<svg width="574" height="574" viewBox="0 0 574 574" fill="none" xmlns="http://www.w3.org/2000/svg">
<g id="Frame">
<g id="Group 3">
<path id="Vector" d="M94.3693 214.006L93.9351 214.254L94.3692 214.006C90.7606 207.691 90.1669 198.599 92.2875 188.969C94.4053 179.352 99.2162 169.271 106.316 161.026C113.414 152.783 122.786 146.39 134.025 144.108C145.251 141.829 158.393 143.639 173.067 151.886L173.088 151.902C173.12 151.925 173.166 151.96 173.228 152.004C173.351 152.092 173.533 152.22 173.774 152.384C174.255 152.71 174.971 153.174 175.913 153.733C177.796 154.85 180.587 156.344 184.227 157.861C191.507 160.895 202.185 164.021 215.797 164.403C243.035 165.167 281.938 154.944 328.8 111.205C349.5 91.8853 369.189 85.0681 387.069 86.535C404.963 88.0031 421.144 97.7759 434.798 111.834C448.449 125.891 459.541 144.201 467.249 162.658C474.958 181.119 479.267 199.69 479.385 214.258C479.652 247.333 463.847 277.518 449.305 305.292C447.227 309.26 445.175 313.18 443.199 317.051C435.312 332.504 428.64 347.207 426.502 361.187C424.358 375.198 426.767 388.491 437.025 401.081C447.034 413.365 447.094 427.643 440.493 441.122C433.881 454.622 420.588 467.294 403.961 476.213C370.705 494.053 324.35 496.773 291.895 461.367C271.557 439.18 254.886 427.002 240.575 421.249C226.242 415.488 214.304 416.185 203.481 419.68C195.121 422.379 187.409 426.757 179.799 431.077C177.592 432.33 175.395 433.578 173.192 434.778C163.36 440.137 153.394 444.586 141.947 444.586C133.815 444.586 123.431 439.516 113.109 430.837C102.806 422.176 92.6381 409.98 84.9391 395.868C69.537 367.637 64.0654 331.854 86.9471 301.345C106.372 275.445 110.865 258.097 109.12 244.916C108.248 238.332 105.825 232.828 102.989 227.858C101.573 225.375 100.05 223.021 98.5683 220.737L98.4524 220.558C97.0086 218.332 95.608 216.174 94.3693 214.006Z" fill="white" stroke="black"/>
<path id="Vector_2" d="M420.439 254.682C423.747 255.912 427.361 255.994 430.801 255.202C445.213 251.896 494.768 243.136 486.158 281.537C484.282 289.155 455.26 331.823 496.59 347.397C499.62 348.553 502.822 349.185 506.063 349.263C518.789 349.525 544.007 346.52 554.56 335.778C567.311 322.799 553.381 328.953 553.381 328.953C553.381 328.953 504.911 350.105 487.789 327.664C485.885 325.167 484.671 321.54 484.325 318.418C483.722 313.006 486.125 305.854 489.282 299.626C493.556 291.198 514.07 253.288 469.528 242.244C459.268 239.801 444.364 237.607 425.15 245.697C413.94 250.416 416.423 253.189 420.439 254.682Z" fill="black" fill-opacity="0.54"/>
<g id="enchufe">
<path id="Vector_3" d="M430.356 240.529L417.456 245.358C413.003 247.025 410.744 251.986 412.411 256.439L413.05 258.148C414.717 262.601 419.678 264.86 424.131 263.193L437.033 258.366C441.486 256.699 443.745 251.738 442.078 247.283L441.439 245.576C439.772 241.121 434.811 238.862 430.356 240.529Z" fill="black"/>
<path id="Vector_4" d="M351.165 254.501L308.619 270.426C306.391 271.258 305.261 273.739 306.096 275.965L306.264 276.414C307.096 278.64 309.577 279.77 311.805 278.937L354.351 263.013C356.579 262.179 357.709 259.698 356.874 257.472L356.706 257.023C355.874 254.797 353.393 253.667 351.165 254.501Z" fill="black" fill-opacity="0.54"/>
<path id="Vector_5" d="M363.041 286.229L320.493 302.152C318.267 302.986 317.137 305.466 317.971 307.693L318.137 308.142C318.972 310.368 321.452 311.497 323.679 310.663L366.226 294.741C368.453 293.906 369.582 291.426 368.75 289.2L368.582 288.751C367.75 286.524 365.267 285.395 363.041 286.229Z" fill="black" fill-opacity="0.54"/>
<path id="Vector_6" d="M402.323 232.849L367.84 245.754C363.385 247.421 361.126 252.384 362.793 256.836L374.568 288.294C376.234 292.746 381.195 295.005 385.648 293.339L420.133 280.434C424.586 278.767 426.845 273.806 425.178 269.352L413.405 237.894C411.738 233.442 406.777 231.183 402.323 232.849Z" fill="#FE8575"/>
<path id="Vector_7" d="M371.403 241.1L336.917 254.007C332.465 255.674 330.206 260.635 331.872 265.09L345.919 302.619C347.586 307.072 352.547 309.331 356.999 307.664L391.484 294.759C395.937 293.093 398.196 288.132 396.529 283.677L382.483 246.148C380.816 241.693 375.855 239.434 371.403 241.1Z" fill="#F05742"/>
<path id="Vector_8" d="M376.8 233.485L376.53 233.585C373.561 234.696 372.054 238.005 373.166 240.973L392.844 293.55C393.955 296.518 397.261 298.025 400.23 296.914L400.5 296.811C403.471 295.7 404.975 292.394 403.864 289.425L384.188 236.849C383.077 233.88 379.769 232.374 376.8 233.485Z" fill="black" fill-opacity="0.88"/>
</g>
<path id="Vector_9" d="M25.1773 267.099C25.1773 267.099 94.4327 247.636 84.378 292.478C82.6318 299.573 57.4966 336.104 87.4364 353.643C93.8652 357.409 101.284 359.078 108.734 359.039C122.092 358.969 143.269 356.399 152.782 346.716C165.531 333.738 151.603 339.892 151.603 339.892C151.603 339.892 111.828 356.253 91.3658 343.211C84.3788 338.758 81.2118 330.136 83.1091 322.069C84.0789 318.064 85.5555 314.197 87.5037 310.565C91.9538 302.229 112.292 264.227 67.7501 253.183C57.4892 250.74 42.5861 248.546 23.37 256.635C4.15395 264.727 25.1773 267.099 25.1773 267.099Z" fill="black" fill-opacity="0.54"/>
<g id="toma">
<path id="Vector_10" d="M162.094 329.857L149.193 334.687C144.74 336.354 142.481 341.315 144.147 345.769L144.787 347.477C146.454 351.932 151.415 354.191 155.869 352.522L168.77 347.694C173.223 346.028 175.482 341.067 173.816 336.612L173.176 334.904C171.509 330.45 166.548 328.191 162.094 329.857Z" fill="black"/>
<path id="Vector_11" d="M183.891 308.632L164.771 315.788C160.318 317.455 158.058 322.416 159.725 326.87L168.945 351.503C170.612 355.958 175.573 358.217 180.027 356.55L199.147 349.394C203.6 347.727 205.859 342.766 204.193 338.312L194.973 313.679C193.306 309.224 188.345 306.965 183.891 308.632Z" fill="#FE8575"/>
<path id="Vector_12" d="M215.722 289.665L187.208 300.337C182.755 302.004 180.496 306.965 182.163 311.42L196.209 348.949C197.876 353.404 202.837 355.663 207.29 353.996L235.803 343.324C240.258 341.657 242.517 336.696 240.85 332.241L226.804 294.712C225.137 290.257 220.176 287.998 215.722 289.665Z" fill="#F05742"/>
<path id="Vector_13" d="M221.763 281.893L221.492 281.994C218.522 283.105 217.017 286.414 218.128 289.382L237.804 341.958C238.915 344.927 242.224 346.434 245.192 345.323L245.463 345.22C248.431 344.109 249.938 340.802 248.827 337.832L229.149 285.257C228.038 282.289 224.731 280.782 221.763 281.893Z" fill="black"/>
</g>
<path id="Vector_14" d="M294.573 248.398C293.546 248.284 292.603 247.777 291.943 246.982C291.285 246.187 290.959 245.168 291.034 244.137L293.162 205.277C293.289 202.956 295.249 201.192 297.473 201.397L300.573 201.684C302.797 201.889 304.39 203.98 304.079 206.285L298.851 244.858C298.732 245.885 298.22 246.826 297.422 247.486C296.625 248.146 295.604 248.472 294.573 248.398Z" fill="#F05742"/>
<path id="Vector_15" d="M276.203 251.748C275.883 251.842 275.549 251.873 275.217 251.838C274.887 251.801 274.565 251.701 274.274 251.541C273.98 251.383 273.724 251.168 273.515 250.908C273.306 250.649 273.15 250.35 273.056 250.032L265.459 225.859C265.237 225.172 265.299 224.424 265.627 223.782C265.957 223.138 266.527 222.653 267.215 222.431L269.181 221.837C269.52 221.738 269.874 221.712 270.223 221.757C270.571 221.802 270.905 221.919 271.207 222.101C271.508 222.281 271.769 222.523 271.971 222.81C272.174 223.097 272.316 223.423 272.386 223.768L278.017 248.536C278.175 249.2 278.074 249.901 277.738 250.498C277.402 251.092 276.855 251.539 276.203 251.748Z" fill="#F05742"/>
<path id="Vector_16" d="M265.951 265.688C264.589 267.375 261.851 267.355 259.743 265.643L222.329 235.244C220.092 233.427 219.434 230.422 220.877 228.634L222.89 226.142C224.336 224.352 227.3 224.5 229.416 226.463L264.819 259.358C266.814 261.209 267.312 264.003 265.951 265.688Z" fill="#F05742"/>
<path id="Vector_17" d="M283.246 344.207C284.21 344.58 284.991 345.312 285.426 346.249C285.862 347.186 285.916 348.256 285.579 349.232L273.597 386.259C272.882 388.471 270.536 389.674 268.437 388.908L265.512 387.84C263.415 387.073 262.408 384.644 263.298 382.497L278.203 346.538C278.583 345.575 279.317 344.796 280.258 344.361C281.196 343.926 282.267 343.871 283.246 344.207Z" fill="#F05742"/>
<path id="Vector_18" d="M301.862 345.661C302.195 345.651 302.527 345.708 302.838 345.827C303.148 345.946 303.433 346.124 303.675 346.354C303.917 346.581 304.111 346.856 304.247 347.159C304.382 347.463 304.458 347.791 304.466 348.125L305.639 373.436C305.675 374.158 305.427 374.863 304.944 375.4C304.462 375.939 303.785 376.263 303.066 376.302L301.012 376.374C300.659 376.382 300.311 376.318 299.985 376.185C299.659 376.052 299.366 375.853 299.12 375.601C298.876 375.349 298.685 375.05 298.562 374.719C298.441 374.389 298.388 374.039 298.406 373.688L299.288 348.305C299.306 347.621 299.583 346.969 300.058 346.479C300.536 345.989 301.18 345.698 301.862 345.661Z" fill="#F05742"/>
<path id="Vector_19" d="M315.335 334.8C317.082 333.517 319.724 334.236 321.323 336.43L349.736 375.375C351.432 377.702 351.302 380.775 349.449 382.136L346.866 384.033C345.013 385.394 342.182 384.494 340.638 382.054L314.808 341.21C313.357 338.912 313.589 336.083 315.335 334.8Z" fill="#F05742"/>
</g>
</g>
</svg>
