<svg width="545" height="405" viewBox="0 0 545 405" fill="none" xmlns="http://www.w3.org/2000/svg">
<path d="M79.3693 129.006L78.9351 129.254L79.3692 129.006C75.7606 122.691 75.1669 113.599 77.2875 103.969C79.4053 94.3523 84.2162 84.2713 91.3162 76.026C98.4145 67.7827 107.786 61.3902 119.025 59.1081C130.251 56.8286 143.393 58.6393 158.067 66.8862L158.088 66.902C158.12 66.9254 158.166 66.9595 158.228 67.0037C158.351 67.092 158.533 67.2205 158.774 67.3835C159.255 67.7096 159.971 68.1741 160.913 68.7327C162.796 69.85 165.587 71.3442 169.227 72.8612C176.507 75.8954 187.185 79.0209 200.797 79.4029C228.035 80.1673 266.938 69.9443 313.8 26.2049C334.5 6.88535 354.189 0.0681096 372.069 1.53502C389.963 3.00307 406.144 12.7759 419.798 26.8344C433.449 40.8913 444.541 59.2008 452.249 77.6583C459.958 96.1189 464.267 114.69 464.385 129.258C464.652 162.333 448.847 192.518 434.305 220.292C432.227 224.26 430.175 228.18 428.199 232.051C420.312 247.504 413.64 262.207 411.502 276.187C409.358 290.198 411.767 303.491 422.025 316.081C432.034 328.365 432.094 342.643 425.493 356.122C418.881 369.622 405.588 382.294 388.961 391.213C355.705 409.053 309.35 411.773 276.895 376.367C256.557 354.18 239.886 342.002 225.575 336.249C211.242 330.488 199.304 331.185 188.481 334.68C180.121 337.379 172.409 341.757 164.799 346.077C162.592 347.33 160.395 348.578 158.192 349.778C148.36 355.137 138.394 359.586 126.947 359.586C118.815 359.586 108.431 354.516 98.1087 345.837C87.8056 337.176 77.6381 324.98 69.9391 310.868C54.537 282.637 49.0654 246.854 71.9471 216.345C91.3721 190.445 95.8651 173.097 94.1201 159.916C93.2484 153.332 90.8248 147.828 87.9893 142.858C86.5727 140.375 85.0503 138.021 83.5683 135.737L83.4524 135.558C82.0086 133.332 80.608 131.174 79.3693 129.006Z" fill="white" stroke="black"/>
<path d="M405.439 169.682C408.747 170.912 412.361 170.994 415.801 170.202C430.213 166.896 479.768 158.136 471.158 196.537C469.282 204.155 440.26 246.823 481.59 262.397C484.62 263.553 487.822 264.185 491.063 264.263C503.789 264.525 529.007 261.52 539.56 250.778C552.311 237.799 538.381 243.953 538.381 243.953C538.381 243.953 489.911 265.105 472.789 242.664C470.885 240.167 469.671 236.54 469.325 233.418C468.722 228.006 471.125 220.854 474.282 214.626C478.556 206.198 499.07 168.288 454.528 157.244C444.268 154.801 429.364 152.607 410.15 160.697C398.94 165.416 401.423 168.189 405.439 169.682Z" fill="black" fill-opacity="0.54"/>
<path d="M415.356 155.529L402.456 160.358C398.003 162.025 395.744 166.986 397.411 171.439L398.05 173.148C399.717 177.601 404.678 179.86 409.131 178.193L422.033 173.366C426.486 171.699 428.745 166.738 427.078 162.283L426.439 160.576C424.772 156.121 419.811 153.862 415.356 155.529Z" fill="black"/>
<path d="M336.165 169.501L293.619 185.426C291.391 186.258 290.261 188.739 291.096 190.965L291.264 191.414C292.096 193.64 294.577 194.77 296.805 193.937L339.351 178.013C341.579 177.179 342.709 174.698 341.874 172.472L341.706 172.023C340.874 169.797 338.393 168.667 336.165 169.501Z" fill="black" fill-opacity="0.54"/>
<path d="M348.041 201.229L305.493 217.152C303.267 217.986 302.137 220.466 302.971 222.693L303.137 223.142C303.972 225.368 306.452 226.497 308.679 225.663L351.226 209.741C353.453 208.906 354.582 206.426 353.75 204.2L353.582 203.751C352.75 201.524 350.267 200.395 348.041 201.229Z" fill="black" fill-opacity="0.54"/>
<path d="M387.323 147.849L352.84 160.754C348.385 162.421 346.126 167.384 347.793 171.836L359.568 203.294C361.234 207.746 366.195 210.005 370.648 208.339L405.133 195.434C409.586 193.767 411.845 188.806 410.178 184.352L398.405 152.894C396.738 148.442 391.777 146.183 387.323 147.849Z" fill="#FE8575"/>
<path d="M356.403 156.1L321.917 169.007C317.465 170.674 315.206 175.635 316.872 180.09L330.919 217.619C332.586 222.072 337.547 224.331 341.999 222.664L376.484 209.759C380.937 208.093 383.196 203.132 381.529 198.677L367.483 161.148C365.816 156.693 360.855 154.434 356.403 156.1Z" fill="#F05742"/>
<path d="M361.8 148.485L361.53 148.585C358.561 149.696 357.054 153.005 358.166 155.973L377.844 208.55C378.955 211.518 382.261 213.025 385.23 211.914L385.5 211.811C388.471 210.7 389.975 207.394 388.864 204.425L369.188 151.849C368.077 148.88 364.769 147.374 361.8 148.485Z" fill="black" fill-opacity="0.88"/>
<path d="M10.1773 182.099C10.1773 182.099 79.4326 162.636 69.378 207.478C67.6318 214.573 42.4966 251.104 72.4364 268.643C78.8652 272.409 86.2842 274.078 93.7345 274.039C107.092 273.969 128.269 271.399 137.782 261.716C150.531 248.738 136.603 254.892 136.603 254.892C136.603 254.892 96.8283 271.253 76.3659 258.211C69.3788 253.758 66.2118 245.136 68.1091 237.069C69.0789 233.064 70.5555 229.197 72.5037 225.565C76.9538 217.229 97.2925 179.227 52.7501 168.183C42.4892 165.74 27.5861 163.546 8.37002 171.635C-10.846 179.727 10.1773 182.099 10.1773 182.099Z" fill="black" fill-opacity="0.54"/>
<path d="M147.094 244.857L134.193 249.687C129.74 251.354 127.481 256.315 129.147 260.769L129.787 262.477C131.454 266.932 136.415 269.191 140.869 267.522L153.77 262.694C158.223 261.028 160.482 256.067 158.816 251.612L158.176 249.904C156.509 245.45 151.548 243.191 147.094 244.857Z" fill="black"/>
<path d="M168.891 223.632L149.771 230.788C145.318 232.455 143.058 237.416 144.725 241.87L153.945 266.503C155.612 270.958 160.573 273.217 165.027 271.55L184.147 264.394C188.6 262.727 190.859 257.766 189.193 253.312L179.973 228.679C178.306 224.224 173.345 221.965 168.891 223.632Z" fill="#FE8575"/>
<path d="M200.722 204.665L172.208 215.337C167.755 217.004 165.496 221.965 167.163 226.42L181.209 263.949C182.876 268.404 187.837 270.663 192.29 268.996L220.803 258.324C225.258 256.657 227.517 251.696 225.85 247.241L211.804 209.712C210.137 205.257 205.176 202.998 200.722 204.665Z" fill="#F05742"/>
<path d="M206.763 196.893L206.492 196.994C203.522 198.105 202.017 201.414 203.128 204.382L222.804 256.958C223.915 259.927 227.224 261.434 230.192 260.323L230.463 260.22C233.431 259.109 234.938 255.802 233.827 252.832L214.149 200.257C213.038 197.289 209.731 195.782 206.763 196.893Z" fill="black"/>
<path d="M279.573 163.398C278.546 163.284 277.603 162.777 276.943 161.982C276.285 161.187 275.959 160.168 276.034 159.137L278.162 120.277C278.289 117.956 280.249 116.192 282.473 116.397L285.573 116.684C287.797 116.889 289.39 118.98 289.079 121.285L283.851 159.858C283.732 160.885 283.22 161.826 282.422 162.486C281.625 163.146 280.604 163.472 279.573 163.398Z" fill="#F05742"/>
<path d="M261.203 166.748C260.883 166.842 260.549 166.873 260.217 166.838C259.887 166.801 259.565 166.701 259.274 166.541C258.98 166.383 258.724 166.168 258.515 165.908C258.306 165.649 258.15 165.35 258.056 165.032L250.459 140.859C250.237 140.172 250.299 139.424 250.627 138.782C250.957 138.138 251.527 137.653 252.215 137.431L254.181 136.837C254.52 136.738 254.874 136.712 255.223 136.757C255.571 136.802 255.905 136.919 256.207 137.101C256.508 137.281 256.769 137.523 256.971 137.81C257.174 138.097 257.316 138.423 257.386 138.768L263.017 163.536C263.175 164.2 263.074 164.901 262.738 165.498C262.402 166.092 261.855 166.539 261.203 166.748Z" fill="#F05742"/>
<path d="M250.951 180.688C249.589 182.375 246.851 182.355 244.743 180.643L207.329 150.244C205.092 148.427 204.434 145.422 205.877 143.634L207.89 141.142C209.336 139.352 212.3 139.5 214.416 141.463L249.819 174.358C251.814 176.209 252.312 179.003 250.951 180.688Z" fill="#F05742"/>
<path d="M268.246 259.207C269.21 259.58 269.991 260.312 270.426 261.249C270.862 262.186 270.916 263.256 270.579 264.232L258.597 301.259C257.882 303.471 255.536 304.674 253.437 303.908L250.512 302.84C248.415 302.073 247.408 299.644 248.298 297.497L263.203 261.538C263.583 260.575 264.317 259.796 265.258 259.361C266.196 258.926 267.267 258.871 268.246 259.207Z" fill="#F05742"/>
<path d="M286.862 260.661C287.195 260.651 287.527 260.708 287.838 260.827C288.148 260.946 288.433 261.124 288.675 261.354C288.917 261.581 289.111 261.856 289.247 262.159C289.382 262.463 289.458 262.791 289.466 263.125L290.639 288.436C290.675 289.158 290.427 289.863 289.944 290.4C289.462 290.939 288.785 291.263 288.066 291.302L286.012 291.374C285.659 291.382 285.311 291.318 284.985 291.185C284.659 291.052 284.366 290.853 284.12 290.601C283.876 290.349 283.685 290.05 283.562 289.719C283.441 289.389 283.388 289.039 283.406 288.688L284.288 263.305C284.306 262.621 284.583 261.969 285.058 261.479C285.536 260.989 286.18 260.698 286.862 260.661Z" fill="#F05742"/>
<path d="M300.335 249.8C302.082 248.517 304.724 249.236 306.323 251.43L334.736 290.375C336.432 292.702 336.302 295.775 334.449 297.136L331.866 299.033C330.013 300.394 327.182 299.494 325.638 297.054L299.808 256.21C298.357 253.912 298.589 251.083 300.335 249.8Z" fill="#F05742"/>
</svg>
