<svg width="400" height="350" viewBox="0 0 400 350" fill="none" xmlns="http://www.w3.org/2000/svg">
<path d="M400 0H0V265.215H400V0ZM133.333 41.876H283.333V55.8347H133.333V41.876ZM300 83.7521V97.7108H200V83.7521H300ZM66.6667 41.876H100V55.8347H66.6667V41.876ZM66.6667 83.7521H166.667V97.7108H66.6667V83.7521ZM66.6667 125.628H200V139.587H66.6667V125.628ZM166.667 223.339H66.6667V209.38H166.667V223.339ZM266.667 223.339H200V209.38H266.667V223.339ZM283.333 181.463H66.6667V167.504H283.333V181.463ZM333.333 139.587H250V125.628H333.333V139.587ZM350 55.8347H316.667V41.876H350V55.8347Z" fill="#F05742"/>
<path d="M83.3326 279.174H72.666L49.5493 341.751L81.3993 350L102.399 293.133H297.599L318.599 350L350.449 341.751L327.333 279.174H316.666H83.3326Z" fill="#F05742"/>
</svg>
