<svg width="476" height="501" viewBox="0 0 476 501" fill="none" xmlns="http://www.w3.org/2000/svg">
<g id="Frame">
<g id="SvgjsG19283">
<path id="Vector" d="M238 501C369.444 501 476 388.847 476 250.5C476 112.153 369.444 0 238 0C106.556 0 0 112.153 0 250.5C0 388.847 106.556 501 238 501Z" fill="#FFE8E1"/>
</g>
<g id="SvgjsG19284">
<g id="Group">
<path id="Pluma" d="M279 83C266.275 83.9558 253.941 87.7271 242.944 94.0462C242.554 97.3283 242.456 100.637 242.666 103.933C241.218 101.521 240.118 98.9213 239.394 96.1978C222.313 107.134 209.895 123.801 204.438 143.045C198.173 151.381 192.995 160.435 189 170.01C206.861 141.044 230.875 116.176 259.412 97.0964C242.192 112.677 225.891 129.196 210.605 146.614C230.651 142.936 248.734 132.464 261.681 117.047C256.67 116.599 251.616 116.76 246.646 117.524C252.298 114.991 258.411 113.575 264.619 113.329C266.416 110.932 268.085 108.426 269.617 105.866C265.65 106.221 261.71 106.915 257.866 107.964C262.03 105.512 266.582 103.783 271.343 102.83C274.725 96.5664 277.302 89.892 279 83Z" fill="#F05742"/>
</g>
<g id="Group_2">
<path id="Vector_2" d="M202.036 171.837C207.963 168.526 215.194 167.668 221.863 169.493C230.093 172.502 239.295 172.571 247.556 169.657C248.147 169.439 248.434 168.839 248.207 168.336C247.981 167.804 247.314 167.532 246.722 167.75C238.975 170.474 230.336 170.419 222.635 167.558C215.299 165.53 207.356 166.47 200.837 170.105C200.292 170.392 200.14 171.019 200.473 171.521C200.794 171.999 201.505 172.147 202.036 171.837Z" fill="#F05742"/>
</g>
</g>
<path id="Lorem ipsum dolor sit amet consectetur adipisicing elit" d="M71.1344 245V218.32H74.0144V242.2H87.6544V245H71.1344ZM100.072 245.6C96.9519 245.6 94.6319 244.68 93.1119 242.84C91.6185 240.973 90.8719 238.387 90.8719 235.08C90.8719 231.613 91.6585 229.013 93.2319 227.28C94.8319 225.547 97.0852 224.68 99.9919 224.68C102.152 224.68 103.912 225.12 105.272 226C106.632 226.853 107.632 228.067 108.272 229.64C108.912 231.187 109.232 233 109.232 235.08C109.232 238.36 108.432 240.933 106.832 242.8C105.259 244.667 103.005 245.6 100.072 245.6ZM100.032 242.96C101.659 242.96 102.925 242.613 103.832 241.92C104.739 241.2 105.379 240.253 105.752 239.08C106.152 237.88 106.352 236.547 106.352 235.08C106.352 233.507 106.152 232.147 105.752 231C105.352 229.827 104.685 228.92 103.752 228.28C102.845 227.64 101.605 227.32 100.032 227.32C98.4319 227.32 97.1785 227.667 96.2719 228.36C95.3652 229.053 94.7119 229.987 94.3119 231.16C93.9385 232.307 93.7519 233.613 93.7519 235.08C93.7519 237.427 94.2185 239.333 95.1519 240.8C96.0852 242.24 97.7119 242.96 100.032 242.96ZM114.645 245V226.64C114.965 226.507 115.579 226.28 116.485 225.96C117.419 225.64 118.525 225.347 119.805 225.08C121.112 224.813 122.459 224.68 123.845 224.68C124.059 224.68 124.272 224.707 124.485 224.76C124.699 224.813 124.912 224.867 125.125 224.92V227.48C124.432 227.4 123.752 227.36 123.085 227.36C122.445 227.36 121.819 227.4 121.205 227.48C120.592 227.533 119.979 227.613 119.365 227.72C118.752 227.827 118.139 227.933 117.525 228.04V245H114.645ZM136.557 245.6C134.664 245.6 133.024 245.213 131.637 244.44C130.251 243.64 129.184 242.453 128.437 240.88C127.691 239.307 127.317 237.347 127.317 235C127.317 231.56 128.091 228.987 129.637 227.28C131.211 225.547 133.357 224.68 136.077 224.68C138.211 224.68 139.917 225.16 141.197 226.12C142.504 227.08 143.437 228.373 143.997 230C144.557 231.627 144.824 233.467 144.797 235.52H128.757L128.957 232.88H142.917L141.797 233.28C141.717 231.28 141.211 229.787 140.277 228.8C139.371 227.813 137.971 227.32 136.077 227.32C134.771 227.32 133.677 227.56 132.797 228.04C131.944 228.52 131.304 229.36 130.877 230.56C130.451 231.733 130.237 233.387 130.237 235.52C130.237 237.947 130.797 239.8 131.917 241.08C133.064 242.333 134.664 242.96 136.717 242.96C137.704 242.96 138.611 242.893 139.437 242.76C140.264 242.6 141.024 242.387 141.717 242.12C142.411 241.853 143.024 241.56 143.557 241.24V244.2C142.597 244.653 141.531 245 140.357 245.24C139.211 245.48 137.944 245.6 136.557 245.6ZM166.552 232V245H163.672V232C163.672 231.52 163.606 231.013 163.472 230.48C163.366 229.947 163.139 229.44 162.792 228.96C162.446 228.453 161.912 228.053 161.192 227.76C160.472 227.44 159.512 227.28 158.312 227.28C157.486 227.28 156.632 227.347 155.752 227.48C154.872 227.613 153.979 227.813 153.072 228.08V245H150.192V226.64C150.832 226.32 151.486 226.04 152.152 225.8C152.846 225.533 153.539 225.32 154.232 225.16C154.952 225 155.672 224.88 156.392 224.8C157.139 224.72 157.886 224.68 158.632 224.68C160.579 224.68 162.126 224.973 163.272 225.56C164.419 226.12 165.246 226.947 165.752 228.04C166.286 229.133 166.552 230.453 166.552 232ZM162.752 227.44C163.632 226.773 164.526 226.24 165.432 225.84C166.339 225.44 167.272 225.147 168.232 224.96C169.219 224.773 170.206 224.68 171.192 224.68C173.139 224.68 174.686 224.973 175.832 225.56C176.979 226.12 177.806 226.947 178.312 228.04C178.846 229.133 179.112 230.453 179.112 232V245H176.232V232C176.232 231.52 176.166 231.013 176.032 230.48C175.926 229.947 175.699 229.44 175.352 228.96C175.006 228.453 174.472 228.053 173.752 227.76C173.032 227.44 172.072 227.28 170.872 227.28C170.046 227.28 169.192 227.4 168.312 227.64C167.432 227.88 166.539 228.293 165.632 228.88L162.752 227.44ZM197.266 245V225.04H200.146V245H197.266ZM197.106 221.48V218.32H200.306V221.48H197.106ZM214.556 245.56C213.969 245.56 213.302 245.48 212.556 245.32C211.836 245.16 211.129 244.96 210.436 244.72C209.742 244.48 209.129 244.227 208.596 243.96L209.596 242.96V253.68H206.716V228.64C206.716 227.813 206.969 227.147 207.476 226.64C208.009 226.133 208.689 225.747 209.516 225.48C210.342 225.187 211.222 224.987 212.156 224.88C213.089 224.747 213.969 224.68 214.796 224.68C216.396 224.68 217.902 225.013 219.316 225.68C220.729 226.347 221.876 227.48 222.756 229.08C223.636 230.653 224.076 232.8 224.076 235.52C224.076 237.573 223.702 239.36 222.956 240.88C222.236 242.373 221.169 243.533 219.756 244.36C218.342 245.16 216.609 245.56 214.556 245.56ZM214.556 242.92C216.022 242.92 217.222 242.613 218.156 242C219.116 241.36 219.836 240.48 220.316 239.36C220.796 238.24 221.036 236.96 221.036 235.52C221.036 234.08 220.876 232.733 220.556 231.48C220.236 230.227 219.622 229.227 218.716 228.48C217.809 227.707 216.489 227.32 214.756 227.32C213.369 227.32 212.156 227.48 211.116 227.8C210.102 228.12 209.596 228.573 209.596 229.16V241.52C210.422 242 211.249 242.36 212.076 242.6C212.902 242.813 213.729 242.92 214.556 242.92ZM235.129 245.6C233.689 245.6 232.476 245.453 231.489 245.16C230.529 244.867 229.529 244.453 228.489 243.92V240.88C229.316 241.333 230.049 241.72 230.689 242.04C231.329 242.36 231.982 242.6 232.649 242.76C233.316 242.893 234.076 242.96 234.929 242.96C236.262 242.96 237.342 242.667 238.169 242.08C239.022 241.493 239.449 240.733 239.449 239.8C239.449 239.053 239.236 238.48 238.809 238.08C238.409 237.68 237.889 237.347 237.249 237.08C236.609 236.813 235.942 236.533 235.249 236.24C234.476 236.027 233.689 235.8 232.889 235.56C232.116 235.293 231.396 234.96 230.729 234.56C230.089 234.133 229.569 233.6 229.169 232.96C228.769 232.293 228.569 231.44 228.569 230.4C228.569 229.387 228.769 228.52 229.169 227.8C229.596 227.08 230.142 226.493 230.809 226.04C231.476 225.56 232.222 225.213 233.049 225C233.876 224.787 234.702 224.68 235.529 224.68C236.729 224.68 237.756 224.84 238.609 225.16C239.462 225.48 240.342 225.84 241.249 226.24V229.12C240.236 228.587 239.329 228.16 238.529 227.84C237.729 227.493 236.782 227.32 235.689 227.32C234.596 227.32 233.609 227.547 232.729 228C231.876 228.427 231.449 229.093 231.449 230C231.449 230.747 231.662 231.347 232.089 231.8C232.542 232.227 233.129 232.573 233.849 232.84C234.569 233.08 235.342 233.32 236.169 233.56C236.836 233.773 237.529 234.013 238.249 234.28C238.969 234.52 239.636 234.853 240.249 235.28C240.862 235.68 241.356 236.213 241.729 236.88C242.129 237.547 242.329 238.4 242.329 239.44C242.329 240.853 241.969 242.027 241.249 242.96C240.529 243.867 239.609 244.533 238.489 244.96C237.396 245.387 236.276 245.6 235.129 245.6ZM256.091 245.6C254.331 245.6 252.825 245.293 251.571 244.68C250.318 244.067 249.358 243.173 248.691 242C248.051 240.827 247.731 239.387 247.731 237.68V225.04H250.611V237.04C250.611 239.067 251.051 240.56 251.931 241.52C252.838 242.453 254.225 242.92 256.091 242.92C257.958 242.92 259.331 242.453 260.211 241.52C261.118 240.56 261.571 239.067 261.571 237.04V225.04H264.451V237.68C264.451 240.213 263.718 242.173 262.251 243.56C260.811 244.92 258.758 245.6 256.091 245.6ZM287.216 232V245H284.336V232C284.336 231.52 284.27 231.013 284.136 230.48C284.03 229.947 283.803 229.44 283.456 228.96C283.11 228.453 282.576 228.053 281.856 227.76C281.136 227.44 280.176 227.28 278.976 227.28C278.15 227.28 277.296 227.347 276.416 227.48C275.536 227.613 274.643 227.813 273.736 228.08V245H270.856V226.64C271.496 226.32 272.15 226.04 272.816 225.8C273.51 225.533 274.203 225.32 274.896 225.16C275.616 225 276.336 224.88 277.056 224.8C277.803 224.72 278.55 224.68 279.296 224.68C281.243 224.68 282.79 224.973 283.936 225.56C285.083 226.12 285.91 226.947 286.416 228.04C286.95 229.133 287.216 230.453 287.216 232ZM283.416 227.44C284.296 226.773 285.19 226.24 286.096 225.84C287.003 225.44 287.936 225.147 288.896 224.96C289.883 224.773 290.87 224.68 291.856 224.68C293.803 224.68 295.35 224.973 296.496 225.56C297.643 226.12 298.47 226.947 298.976 228.04C299.51 229.133 299.776 230.453 299.776 232V245H296.896V232C296.896 231.52 296.83 231.013 296.696 230.48C296.59 229.947 296.363 229.44 296.016 228.96C295.67 228.453 295.136 228.053 294.416 227.76C293.696 227.44 292.736 227.28 291.536 227.28C290.71 227.28 289.856 227.4 288.976 227.64C288.096 227.88 287.203 228.293 286.296 228.88L283.416 227.44ZM326.05 245.6C325.09 245.6 324.077 245.453 323.01 245.16C321.944 244.893 320.93 244.387 319.97 243.64C319.037 242.867 318.264 241.773 317.65 240.36C317.064 238.92 316.77 237.053 316.77 234.76C316.77 231.667 317.517 229.227 319.01 227.44C320.53 225.627 322.824 224.72 325.89 224.72C326.477 224.72 327.17 224.8 327.97 224.96C328.77 225.12 329.557 225.32 330.33 225.56C331.104 225.8 331.744 226.053 332.25 226.32L331.25 227.32V216.6H334.13V241.56C334.13 242.307 333.864 242.947 333.33 243.48C332.824 243.987 332.157 244.4 331.33 244.72C330.504 245.013 329.624 245.227 328.69 245.36C327.757 245.52 326.877 245.6 326.05 245.6ZM326.09 242.96C327.477 242.96 328.677 242.8 329.69 242.48C330.73 242.16 331.25 241.76 331.25 241.28V228.76C330.424 228.28 329.53 227.933 328.57 227.72C327.637 227.48 326.744 227.36 325.89 227.36C324.45 227.36 323.277 227.68 322.37 228.32C321.49 228.933 320.837 229.8 320.41 230.92C320.01 232.013 319.81 233.293 319.81 234.76C319.81 236.2 319.97 237.547 320.29 238.8C320.61 240.027 321.224 241.027 322.13 241.8C323.037 242.573 324.357 242.96 326.09 242.96ZM348.744 245.6C345.624 245.6 343.304 244.68 341.784 242.84C340.29 240.973 339.544 238.387 339.544 235.08C339.544 231.613 340.33 229.013 341.904 227.28C343.504 225.547 345.757 224.68 348.664 224.68C350.824 224.68 352.584 225.12 353.944 226C355.304 226.853 356.304 228.067 356.944 229.64C357.584 231.187 357.904 233 357.904 235.08C357.904 238.36 357.104 240.933 355.504 242.8C353.93 244.667 351.677 245.6 348.744 245.6ZM348.704 242.96C350.33 242.96 351.597 242.613 352.504 241.92C353.41 241.2 354.05 240.253 354.424 239.08C354.824 237.88 355.024 236.547 355.024 235.08C355.024 233.507 354.824 232.147 354.424 231C354.024 229.827 353.357 228.92 352.424 228.28C351.517 227.64 350.277 227.32 348.704 227.32C347.104 227.32 345.85 227.667 344.944 228.36C344.037 229.053 343.384 229.987 342.984 231.16C342.61 232.307 342.424 233.613 342.424 235.08C342.424 237.427 342.89 239.333 343.824 240.8C344.757 242.24 346.384 242.96 348.704 242.96ZM366.197 245H363.317V217.44H366.197V245ZM380.814 245.6C377.694 245.6 375.374 244.68 373.854 242.84C372.361 240.973 371.614 238.387 371.614 235.08C371.614 231.613 372.401 229.013 373.974 227.28C375.574 225.547 377.827 224.68 380.734 224.68C382.894 224.68 384.654 225.12 386.014 226C387.374 226.853 388.374 228.067 389.014 229.64C389.654 231.187 389.974 233 389.974 235.08C389.974 238.36 389.174 240.933 387.574 242.8C386.001 244.667 383.747 245.6 380.814 245.6ZM380.774 242.96C382.401 242.96 383.667 242.613 384.574 241.92C385.481 241.2 386.121 240.253 386.494 239.08C386.894 237.88 387.094 236.547 387.094 235.08C387.094 233.507 386.894 232.147 386.494 231C386.094 229.827 385.427 228.92 384.494 228.28C383.587 227.64 382.347 227.32 380.774 227.32C379.174 227.32 377.921 227.667 377.014 228.36C376.107 229.053 375.454 229.987 375.054 231.16C374.681 232.307 374.494 233.613 374.494 235.08C374.494 237.427 374.961 239.333 375.894 240.8C376.827 242.24 378.454 242.96 380.774 242.96ZM395.388 245V226.64C395.708 226.507 396.321 226.28 397.228 225.96C398.161 225.64 399.268 225.347 400.548 225.08C401.854 224.813 403.201 224.68 404.588 224.68C404.801 224.68 405.014 224.707 405.228 224.76C405.441 224.813 405.654 224.867 405.868 224.92V227.48C405.174 227.4 404.494 227.36 403.828 227.36C403.188 227.36 402.561 227.4 401.948 227.48C401.334 227.533 400.721 227.613 400.108 227.72C399.494 227.827 398.881 227.933 398.268 228.04V245H395.388ZM59.5236 292.6C58.0836 292.6 56.8703 292.453 55.8836 292.16C54.9236 291.867 53.9236 291.453 52.8836 290.92V287.88C53.7103 288.333 54.4436 288.72 55.0836 289.04C55.7236 289.36 56.3769 289.6 57.0436 289.76C57.7103 289.893 58.4703 289.96 59.3236 289.96C60.6569 289.96 61.7369 289.667 62.5636 289.08C63.4169 288.493 63.8436 287.733 63.8436 286.8C63.8436 286.053 63.6303 285.48 63.2036 285.08C62.8036 284.68 62.2836 284.347 61.6436 284.08C61.0036 283.813 60.3369 283.533 59.6436 283.24C58.8703 283.027 58.0836 282.8 57.2836 282.56C56.5103 282.293 55.7903 281.96 55.1236 281.56C54.4836 281.133 53.9636 280.6 53.5636 279.96C53.1636 279.293 52.9636 278.44 52.9636 277.4C52.9636 276.387 53.1636 275.52 53.5636 274.8C53.9903 274.08 54.5369 273.493 55.2036 273.04C55.8703 272.56 56.6169 272.213 57.4436 272C58.2703 271.787 59.0969 271.68 59.9236 271.68C61.1236 271.68 62.1503 271.84 63.0036 272.16C63.8569 272.48 64.7369 272.84 65.6436 273.24V276.12C64.6303 275.587 63.7236 275.16 62.9236 274.84C62.1236 274.493 61.1769 274.32 60.0836 274.32C58.9903 274.32 58.0036 274.547 57.1236 275C56.2703 275.427 55.8436 276.093 55.8436 277C55.8436 277.747 56.0569 278.347 56.4836 278.8C56.9369 279.227 57.5236 279.573 58.2436 279.84C58.9636 280.08 59.7369 280.32 60.5636 280.56C61.2303 280.773 61.9236 281.013 62.6436 281.28C63.3636 281.52 64.0303 281.853 64.6436 282.28C65.2569 282.68 65.7503 283.213 66.1236 283.88C66.5236 284.547 66.7236 285.4 66.7236 286.44C66.7236 287.853 66.3636 289.027 65.6436 289.96C64.9236 290.867 64.0036 291.533 62.8836 291.96C61.7903 292.387 60.6703 292.6 59.5236 292.6ZM72.2858 292V272.04H75.1658V292H72.2858ZM72.1258 268.48V265.32H75.3258V268.48H72.1258ZM88.0152 292.32C86.6018 292.32 85.4152 291.893 84.4552 291.04C83.4952 290.16 83.0152 288.867 83.0152 287.16V274.68H79.5352V272.04H83.0152V266.4H85.8952V272.04H91.0552V274.68H85.8952V286.24C85.8952 287.36 86.0685 288.2 86.4152 288.76C86.7618 289.32 87.4685 289.6 88.5352 289.6C89.0152 289.6 89.4818 289.56 89.9352 289.48C90.3885 289.373 90.7618 289.253 91.0552 289.12V291.84C90.6818 291.973 90.2018 292.08 89.6152 292.16C89.0552 292.267 88.5218 292.32 88.0152 292.32ZM114.748 292.6C113.868 292.6 112.975 292.507 112.068 292.32C111.188 292.133 110.361 291.813 109.588 291.36C108.841 290.907 108.228 290.293 107.748 289.52C107.295 288.72 107.068 287.72 107.068 286.52C107.068 284.867 107.375 283.547 107.988 282.56C108.628 281.547 109.495 280.827 110.588 280.4C111.708 279.947 112.988 279.72 114.428 279.72C115.521 279.72 116.468 279.787 117.268 279.92C118.068 280.053 118.775 280.253 119.388 280.52C120.028 280.76 120.601 281.04 121.108 281.36L121.668 284C121.055 283.547 120.161 283.16 118.988 282.84C117.841 282.493 116.575 282.32 115.188 282.32C113.508 282.32 112.215 282.64 111.308 283.28C110.401 283.92 109.948 284.853 109.948 286.08C109.948 287.067 110.215 287.853 110.748 288.44C111.308 289.027 112.001 289.44 112.828 289.68C113.681 289.92 114.548 290.04 115.428 290.04C117.161 290.04 118.468 289.92 119.348 289.68C120.255 289.413 120.708 288.827 120.708 287.92V278.76C120.708 277.213 120.255 276.08 119.348 275.36C118.441 274.64 117.148 274.28 115.468 274.28C114.401 274.28 113.268 274.44 112.068 274.76C110.895 275.053 109.881 275.533 109.028 276.2V273.32C109.855 272.787 110.961 272.387 112.348 272.12C113.735 271.827 115.081 271.68 116.388 271.68C117.268 271.68 118.081 271.773 118.828 271.96C119.575 272.12 120.241 272.373 120.828 272.72C121.415 273.04 121.908 273.467 122.308 274C122.735 274.507 123.055 275.107 123.268 275.8C123.508 276.467 123.628 277.227 123.628 278.08V287.76C123.628 289.173 123.201 290.227 122.348 290.92C121.521 291.613 120.428 292.067 119.068 292.28C117.735 292.493 116.295 292.6 114.748 292.6ZM146.376 279V292H143.496V279C143.496 278.52 143.43 278.013 143.296 277.48C143.19 276.947 142.963 276.44 142.616 275.96C142.27 275.453 141.736 275.053 141.016 274.76C140.296 274.44 139.336 274.28 138.136 274.28C137.31 274.28 136.456 274.347 135.576 274.48C134.696 274.613 133.803 274.813 132.896 275.08V292H130.016V273.64C130.656 273.32 131.31 273.04 131.976 272.8C132.67 272.533 133.363 272.32 134.056 272.16C134.776 272 135.496 271.88 136.216 271.8C136.963 271.72 137.71 271.68 138.456 271.68C140.403 271.68 141.95 271.973 143.096 272.56C144.243 273.12 145.07 273.947 145.576 275.04C146.11 276.133 146.376 277.453 146.376 279ZM142.576 274.44C143.456 273.773 144.35 273.24 145.256 272.84C146.163 272.44 147.096 272.147 148.056 271.96C149.043 271.773 150.03 271.68 151.016 271.68C152.963 271.68 154.51 271.973 155.656 272.56C156.803 273.12 157.63 273.947 158.136 275.04C158.67 276.133 158.936 277.453 158.936 279V292H156.056V279C156.056 278.52 155.99 278.013 155.856 277.48C155.75 276.947 155.523 276.44 155.176 275.96C154.83 275.453 154.296 275.053 153.576 274.76C152.856 274.44 151.896 274.28 150.696 274.28C149.87 274.28 149.016 274.4 148.136 274.64C147.256 274.88 146.363 275.293 145.456 275.88L142.576 274.44ZM173.569 292.6C171.676 292.6 170.036 292.213 168.649 291.44C167.262 290.64 166.196 289.453 165.449 287.88C164.702 286.307 164.329 284.347 164.329 282C164.329 278.56 165.102 275.987 166.649 274.28C168.222 272.547 170.369 271.68 173.089 271.68C175.222 271.68 176.929 272.16 178.209 273.12C179.516 274.08 180.449 275.373 181.009 277C181.569 278.627 181.836 280.467 181.809 282.52H165.769L165.969 279.88H179.929L178.809 280.28C178.729 278.28 178.222 276.787 177.289 275.8C176.382 274.813 174.982 274.32 173.089 274.32C171.782 274.32 170.689 274.56 169.809 275.04C168.956 275.52 168.316 276.36 167.889 277.56C167.462 278.733 167.249 280.387 167.249 282.52C167.249 284.947 167.809 286.8 168.929 288.08C170.076 289.333 171.676 289.96 173.729 289.96C174.716 289.96 175.622 289.893 176.449 289.76C177.276 289.6 178.036 289.387 178.729 289.12C179.422 288.853 180.036 288.56 180.569 288.24V291.2C179.609 291.653 178.542 292 177.369 292.24C176.222 292.48 174.956 292.6 173.569 292.6ZM193.484 292.32C192.071 292.32 190.884 291.893 189.924 291.04C188.964 290.16 188.484 288.867 188.484 287.16V274.68H185.004V272.04H188.484V266.4H191.364V272.04H196.524V274.68H191.364V286.24C191.364 287.36 191.537 288.2 191.884 288.76C192.231 289.32 192.937 289.6 194.004 289.6C194.484 289.6 194.951 289.56 195.404 289.48C195.857 289.373 196.231 289.253 196.524 289.12V291.84C196.151 291.973 195.671 292.08 195.084 292.16C194.524 292.267 193.991 292.32 193.484 292.32ZM221.697 292.32C220.63 292.32 219.537 292.187 218.417 291.92C217.323 291.627 216.31 291.12 215.377 290.4C214.47 289.653 213.737 288.6 213.177 287.24C212.617 285.88 212.337 284.133 212.337 282C212.337 279.867 212.617 278.133 213.177 276.8C213.737 275.44 214.47 274.387 215.377 273.64C216.31 272.893 217.323 272.387 218.417 272.12C219.537 271.827 220.63 271.68 221.697 271.68C222.71 271.68 223.71 271.773 224.697 271.96C225.71 272.147 226.683 272.427 227.617 272.8V275.56C226.737 275.187 225.83 274.907 224.897 274.72C223.963 274.533 223.003 274.44 222.017 274.44C219.643 274.44 217.91 275.04 216.817 276.24C215.75 277.44 215.217 279.36 215.217 282C215.217 284.667 215.75 286.6 216.817 287.8C217.91 288.973 219.643 289.56 222.017 289.56C223.003 289.56 223.963 289.467 224.897 289.28C225.83 289.093 226.737 288.813 227.617 288.44V291.24C226.683 291.587 225.71 291.853 224.697 292.04C223.71 292.227 222.71 292.32 221.697 292.32ZM241.224 292.6C238.104 292.6 235.784 291.68 234.264 289.84C232.771 287.973 232.024 285.387 232.024 282.08C232.024 278.613 232.811 276.013 234.384 274.28C235.984 272.547 238.238 271.68 241.144 271.68C243.304 271.68 245.064 272.12 246.424 273C247.784 273.853 248.784 275.067 249.424 276.64C250.064 278.187 250.384 280 250.384 282.08C250.384 285.36 249.584 287.933 247.984 289.8C246.411 291.667 244.158 292.6 241.224 292.6ZM241.184 289.96C242.811 289.96 244.078 289.613 244.984 288.92C245.891 288.2 246.531 287.253 246.904 286.08C247.304 284.88 247.504 283.547 247.504 282.08C247.504 280.507 247.304 279.147 246.904 278C246.504 276.827 245.838 275.92 244.904 275.28C243.998 274.64 242.758 274.32 241.184 274.32C239.584 274.32 238.331 274.667 237.424 275.36C236.518 276.053 235.864 276.987 235.464 278.16C235.091 279.307 234.904 280.613 234.904 282.08C234.904 284.427 235.371 286.333 236.304 287.8C237.238 289.24 238.864 289.96 241.184 289.96ZM255.798 273.64C256.438 273.32 257.091 273.04 257.758 272.8C258.451 272.533 259.144 272.32 259.838 272.16C260.558 272 261.278 271.88 261.998 271.8C262.744 271.72 263.491 271.68 264.238 271.68C266.184 271.68 267.731 271.973 268.878 272.56C270.024 273.12 270.851 273.947 271.358 275.04C271.891 276.133 272.158 277.453 272.158 279V292H269.278V279C269.278 278.52 269.211 278.013 269.078 277.48C268.971 276.947 268.744 276.44 268.398 275.96C268.051 275.453 267.518 275.053 266.798 274.76C266.078 274.44 265.118 274.28 263.918 274.28C263.091 274.28 262.238 274.347 261.358 274.48C260.478 274.613 259.584 274.813 258.678 275.08V292H255.798V273.64ZM284.211 292.6C282.771 292.6 281.558 292.453 280.571 292.16C279.611 291.867 278.611 291.453 277.571 290.92V287.88C278.398 288.333 279.131 288.72 279.771 289.04C280.411 289.36 281.064 289.6 281.731 289.76C282.398 289.893 283.158 289.96 284.011 289.96C285.344 289.96 286.424 289.667 287.251 289.08C288.104 288.493 288.531 287.733 288.531 286.8C288.531 286.053 288.318 285.48 287.891 285.08C287.491 284.68 286.971 284.347 286.331 284.08C285.691 283.813 285.024 283.533 284.331 283.24C283.558 283.027 282.771 282.8 281.971 282.56C281.198 282.293 280.478 281.96 279.811 281.56C279.171 281.133 278.651 280.6 278.251 279.96C277.851 279.293 277.651 278.44 277.651 277.4C277.651 276.387 277.851 275.52 278.251 274.8C278.678 274.08 279.224 273.493 279.891 273.04C280.558 272.56 281.304 272.213 282.131 272C282.958 271.787 283.784 271.68 284.611 271.68C285.811 271.68 286.838 271.84 287.691 272.16C288.544 272.48 289.424 272.84 290.331 273.24V276.12C289.318 275.587 288.411 275.16 287.611 274.84C286.811 274.493 285.864 274.32 284.771 274.32C283.678 274.32 282.691 274.547 281.811 275C280.958 275.427 280.531 276.093 280.531 277C280.531 277.747 280.744 278.347 281.171 278.8C281.624 279.227 282.211 279.573 282.931 279.84C283.651 280.08 284.424 280.32 285.251 280.56C285.918 280.773 286.611 281.013 287.331 281.28C288.051 281.52 288.718 281.853 289.331 282.28C289.944 282.68 290.438 283.213 290.811 283.88C291.211 284.547 291.411 285.4 291.411 286.44C291.411 287.853 291.051 289.027 290.331 289.96C289.611 290.867 288.691 291.533 287.571 291.96C286.478 292.387 285.358 292.6 284.211 292.6ZM305.053 292.6C303.16 292.6 301.52 292.213 300.133 291.44C298.747 290.64 297.68 289.453 296.933 287.88C296.187 286.307 295.813 284.347 295.813 282C295.813 278.56 296.587 275.987 298.133 274.28C299.707 272.547 301.853 271.68 304.573 271.68C306.707 271.68 308.413 272.16 309.693 273.12C311 274.08 311.933 275.373 312.493 277C313.053 278.627 313.32 280.467 313.293 282.52H297.253L297.453 279.88H311.413L310.293 280.28C310.213 278.28 309.707 276.787 308.773 275.8C307.867 274.813 306.467 274.32 304.573 274.32C303.267 274.32 302.173 274.56 301.293 275.04C300.44 275.52 299.8 276.36 299.373 277.56C298.947 278.733 298.733 280.387 298.733 282.52C298.733 284.947 299.293 286.8 300.413 288.08C301.56 289.333 303.16 289.96 305.213 289.96C306.2 289.96 307.107 289.893 307.933 289.76C308.76 289.6 309.52 289.387 310.213 289.12C310.907 288.853 311.52 288.56 312.053 288.24V291.2C311.093 291.653 310.027 292 308.853 292.24C307.707 292.48 306.44 292.6 305.053 292.6ZM327.048 292.32C325.982 292.32 324.888 292.187 323.768 291.92C322.675 291.627 321.662 291.12 320.728 290.4C319.822 289.653 319.088 288.6 318.528 287.24C317.968 285.88 317.688 284.133 317.688 282C317.688 279.867 317.968 278.133 318.528 276.8C319.088 275.44 319.822 274.387 320.728 273.64C321.662 272.893 322.675 272.387 323.768 272.12C324.888 271.827 325.982 271.68 327.048 271.68C328.062 271.68 329.062 271.773 330.048 271.96C331.062 272.147 332.035 272.427 332.968 272.8V275.56C332.088 275.187 331.182 274.907 330.248 274.72C329.315 274.533 328.355 274.44 327.368 274.44C324.995 274.44 323.262 275.04 322.168 276.24C321.102 277.44 320.568 279.36 320.568 282C320.568 284.667 321.102 286.6 322.168 287.8C323.262 288.973 324.995 289.56 327.368 289.56C328.355 289.56 329.315 289.467 330.248 289.28C331.182 289.093 332.088 288.813 332.968 288.44V291.24C332.035 291.587 331.062 291.853 330.048 292.04C329.062 292.227 328.062 292.32 327.048 292.32ZM344.656 292.32C343.242 292.32 342.056 291.893 341.096 291.04C340.136 290.16 339.656 288.867 339.656 287.16V274.68H336.176V272.04H339.656V266.4H342.536V272.04H347.696V274.68H342.536V286.24C342.536 287.36 342.709 288.2 343.056 288.76C343.402 289.32 344.109 289.6 345.176 289.6C345.656 289.6 346.122 289.56 346.576 289.48C347.029 289.373 347.402 289.253 347.696 289.12V291.84C347.322 291.973 346.842 292.08 346.256 292.16C345.696 292.267 345.162 292.32 344.656 292.32ZM361.147 292.6C359.254 292.6 357.614 292.213 356.227 291.44C354.84 290.64 353.774 289.453 353.027 287.88C352.28 286.307 351.907 284.347 351.907 282C351.907 278.56 352.68 275.987 354.227 274.28C355.8 272.547 357.947 271.68 360.667 271.68C362.8 271.68 364.507 272.16 365.787 273.12C367.094 274.08 368.027 275.373 368.587 277C369.147 278.627 369.414 280.467 369.387 282.52H353.347L353.547 279.88H367.507L366.387 280.28C366.307 278.28 365.8 276.787 364.867 275.8C363.96 274.813 362.56 274.32 360.667 274.32C359.36 274.32 358.267 274.56 357.387 275.04C356.534 275.52 355.894 276.36 355.467 277.56C355.04 278.733 354.827 280.387 354.827 282.52C354.827 284.947 355.387 286.8 356.507 288.08C357.654 289.333 359.254 289.96 361.307 289.96C362.294 289.96 363.2 289.893 364.027 289.76C364.854 289.6 365.614 289.387 366.307 289.12C367 288.853 367.614 288.56 368.147 288.24V291.2C367.187 291.653 366.12 292 364.947 292.24C363.8 292.48 362.534 292.6 361.147 292.6ZM381.062 292.32C379.649 292.32 378.462 291.893 377.502 291.04C376.542 290.16 376.062 288.867 376.062 287.16V274.68H372.582V272.04H376.062V266.4H378.942V272.04H384.102V274.68H378.942V286.24C378.942 287.36 379.115 288.2 379.462 288.76C379.809 289.32 380.515 289.6 381.582 289.6C382.062 289.6 382.529 289.56 382.982 289.48C383.435 289.373 383.809 289.253 384.102 289.12V291.84C383.729 291.973 383.249 292.08 382.662 292.16C382.102 292.267 381.569 292.32 381.062 292.32ZM397.673 292.6C395.913 292.6 394.407 292.293 393.153 291.68C391.9 291.067 390.94 290.173 390.273 289C389.633 287.827 389.313 286.387 389.313 284.68V272.04H392.193V284.04C392.193 286.067 392.633 287.56 393.513 288.52C394.42 289.453 395.807 289.92 397.673 289.92C399.54 289.92 400.913 289.453 401.793 288.52C402.7 287.56 403.153 286.067 403.153 284.04V272.04H406.033V284.68C406.033 287.213 405.3 289.173 403.833 290.56C402.393 291.92 400.34 292.6 397.673 292.6ZM412.438 292V273.64C412.758 273.507 413.372 273.28 414.278 272.96C415.212 272.64 416.318 272.347 417.598 272.08C418.905 271.813 420.252 271.68 421.638 271.68C421.852 271.68 422.065 271.707 422.278 271.76C422.492 271.813 422.705 271.867 422.918 271.92V274.48C422.225 274.4 421.545 274.36 420.878 274.36C420.238 274.36 419.612 274.4 418.998 274.48C418.385 274.533 417.772 274.613 417.158 274.72C416.545 274.827 415.932 274.933 415.318 275.04V292H412.438ZM119.318 339.6C118.438 339.6 117.545 339.507 116.638 339.32C115.758 339.133 114.932 338.813 114.158 338.36C113.412 337.907 112.798 337.293 112.318 336.52C111.865 335.72 111.638 334.72 111.638 333.52C111.638 331.867 111.945 330.547 112.558 329.56C113.198 328.547 114.065 327.827 115.158 327.4C116.278 326.947 117.558 326.72 118.998 326.72C120.092 326.72 121.038 326.787 121.838 326.92C122.638 327.053 123.345 327.253 123.958 327.52C124.598 327.76 125.172 328.04 125.678 328.36L126.238 331C125.625 330.547 124.732 330.16 123.558 329.84C122.412 329.493 121.145 329.32 119.758 329.32C118.078 329.32 116.785 329.64 115.878 330.28C114.972 330.92 114.518 331.853 114.518 333.08C114.518 334.067 114.785 334.853 115.318 335.44C115.878 336.027 116.572 336.44 117.398 336.68C118.252 336.92 119.118 337.04 119.998 337.04C121.732 337.04 123.038 336.92 123.918 336.68C124.825 336.413 125.278 335.827 125.278 334.92V325.76C125.278 324.213 124.825 323.08 123.918 322.36C123.012 321.64 121.718 321.28 120.038 321.28C118.972 321.28 117.838 321.44 116.638 321.76C115.465 322.053 114.452 322.533 113.598 323.2V320.32C114.425 319.787 115.532 319.387 116.918 319.12C118.305 318.827 119.652 318.68 120.958 318.68C121.838 318.68 122.652 318.773 123.398 318.96C124.145 319.12 124.812 319.373 125.398 319.72C125.985 320.04 126.478 320.467 126.878 321C127.305 321.507 127.625 322.107 127.838 322.8C128.078 323.467 128.198 324.227 128.198 325.08V334.76C128.198 336.173 127.772 337.227 126.918 337.92C126.092 338.613 124.998 339.067 123.638 339.28C122.305 339.493 120.865 339.6 119.318 339.6ZM142.867 339.6C141.907 339.6 140.893 339.453 139.827 339.16C138.76 338.893 137.747 338.387 136.787 337.64C135.853 336.867 135.08 335.773 134.467 334.36C133.88 332.92 133.587 331.053 133.587 328.76C133.587 325.667 134.333 323.227 135.827 321.44C137.347 319.627 139.64 318.72 142.707 318.72C143.293 318.72 143.987 318.8 144.787 318.96C145.587 319.12 146.373 319.32 147.147 319.56C147.92 319.8 148.56 320.053 149.067 320.32L148.067 321.32V310.6H150.947V335.56C150.947 336.307 150.68 336.947 150.147 337.48C149.64 337.987 148.973 338.4 148.147 338.72C147.32 339.013 146.44 339.227 145.507 339.36C144.573 339.52 143.693 339.6 142.867 339.6ZM142.907 336.96C144.293 336.96 145.493 336.8 146.507 336.48C147.547 336.16 148.067 335.76 148.067 335.28V322.76C147.24 322.28 146.347 321.933 145.387 321.72C144.453 321.48 143.56 321.36 142.707 321.36C141.267 321.36 140.093 321.68 139.187 322.32C138.307 322.933 137.653 323.8 137.227 324.92C136.827 326.013 136.627 327.293 136.627 328.76C136.627 330.2 136.787 331.547 137.107 332.8C137.427 334.027 138.04 335.027 138.947 335.8C139.853 336.573 141.173 336.96 142.907 336.96ZM157.52 339V319.04H160.4V339H157.52ZM157.36 315.48V312.32H160.56V315.48H157.36ZM174.81 339.56C174.223 339.56 173.556 339.48 172.81 339.32C172.09 339.16 171.383 338.96 170.69 338.72C169.996 338.48 169.383 338.227 168.85 337.96L169.85 336.96V347.68H166.97V322.64C166.97 321.813 167.223 321.147 167.73 320.64C168.263 320.133 168.943 319.747 169.77 319.48C170.596 319.187 171.476 318.987 172.41 318.88C173.343 318.747 174.223 318.68 175.05 318.68C176.65 318.68 178.156 319.013 179.57 319.68C180.983 320.347 182.13 321.48 183.01 323.08C183.89 324.653 184.33 326.8 184.33 329.52C184.33 331.573 183.956 333.36 183.21 334.88C182.49 336.373 181.423 337.533 180.01 338.36C178.596 339.16 176.863 339.56 174.81 339.56ZM174.81 336.92C176.276 336.92 177.476 336.613 178.41 336C179.37 335.36 180.09 334.48 180.57 333.36C181.05 332.24 181.29 330.96 181.29 329.52C181.29 328.08 181.13 326.733 180.81 325.48C180.49 324.227 179.876 323.227 178.97 322.48C178.063 321.707 176.743 321.32 175.01 321.32C173.623 321.32 172.41 321.48 171.37 321.8C170.356 322.12 169.85 322.573 169.85 323.16V335.52C170.676 336 171.503 336.36 172.33 336.6C173.156 336.813 173.983 336.92 174.81 336.92ZM189.903 339V319.04H192.783V339H189.903ZM189.743 315.48V312.32H192.943V315.48H189.743ZM204.992 339.6C203.552 339.6 202.339 339.453 201.352 339.16C200.392 338.867 199.392 338.453 198.352 337.92V334.88C199.179 335.333 199.912 335.72 200.552 336.04C201.192 336.36 201.846 336.6 202.512 336.76C203.179 336.893 203.939 336.96 204.792 336.96C206.126 336.96 207.206 336.667 208.032 336.08C208.886 335.493 209.312 334.733 209.312 333.8C209.312 333.053 209.099 332.48 208.672 332.08C208.272 331.68 207.752 331.347 207.112 331.08C206.472 330.813 205.806 330.533 205.112 330.24C204.339 330.027 203.552 329.8 202.752 329.56C201.979 329.293 201.259 328.96 200.592 328.56C199.952 328.133 199.432 327.6 199.032 326.96C198.632 326.293 198.432 325.44 198.432 324.4C198.432 323.387 198.632 322.52 199.032 321.8C199.459 321.08 200.006 320.493 200.672 320.04C201.339 319.56 202.086 319.213 202.912 319C203.739 318.787 204.566 318.68 205.392 318.68C206.592 318.68 207.619 318.84 208.472 319.16C209.326 319.48 210.206 319.84 211.112 320.24V323.12C210.099 322.587 209.192 322.16 208.392 321.84C207.592 321.493 206.646 321.32 205.552 321.32C204.459 321.32 203.472 321.547 202.592 322C201.739 322.427 201.312 323.093 201.312 324C201.312 324.747 201.526 325.347 201.952 325.8C202.406 326.227 202.992 326.573 203.712 326.84C204.432 327.08 205.206 327.32 206.032 327.56C206.699 327.773 207.392 328.013 208.112 328.28C208.832 328.52 209.499 328.853 210.112 329.28C210.726 329.68 211.219 330.213 211.592 330.88C211.992 331.547 212.192 332.4 212.192 333.44C212.192 334.853 211.832 336.027 211.112 336.96C210.392 337.867 209.472 338.533 208.352 338.96C207.259 339.387 206.139 339.6 204.992 339.6ZM217.755 339V319.04H220.635V339H217.755ZM217.595 315.48V312.32H220.795V315.48H217.595ZM235.564 339.32C234.497 339.32 233.404 339.187 232.284 338.92C231.191 338.627 230.177 338.12 229.244 337.4C228.337 336.653 227.604 335.6 227.044 334.24C226.484 332.88 226.204 331.133 226.204 329C226.204 326.867 226.484 325.133 227.044 323.8C227.604 322.44 228.337 321.387 229.244 320.64C230.177 319.893 231.191 319.387 232.284 319.12C233.404 318.827 234.497 318.68 235.564 318.68C236.577 318.68 237.577 318.773 238.564 318.96C239.577 319.147 240.551 319.427 241.484 319.8V322.56C240.604 322.187 239.697 321.907 238.764 321.72C237.831 321.533 236.871 321.44 235.884 321.44C233.511 321.44 231.777 322.04 230.684 323.24C229.617 324.44 229.084 326.36 229.084 329C229.084 331.667 229.617 333.6 230.684 334.8C231.777 335.973 233.511 336.56 235.884 336.56C236.871 336.56 237.831 336.467 238.764 336.28C239.697 336.093 240.604 335.813 241.484 335.44V338.24C240.551 338.587 239.577 338.853 238.564 339.04C237.577 339.227 236.577 339.32 235.564 339.32ZM247.051 339V319.04H249.931V339H247.051ZM246.891 315.48V312.32H250.091V315.48H246.891ZM256.501 320.64C257.141 320.32 257.794 320.04 258.461 319.8C259.154 319.533 259.847 319.32 260.541 319.16C261.261 319 261.981 318.88 262.701 318.8C263.447 318.72 264.194 318.68 264.941 318.68C266.887 318.68 268.434 318.973 269.581 319.56C270.727 320.12 271.554 320.947 272.061 322.04C272.594 323.133 272.861 324.453 272.861 326V339H269.981V326C269.981 325.52 269.914 325.013 269.781 324.48C269.674 323.947 269.447 323.44 269.101 322.96C268.754 322.453 268.221 322.053 267.501 321.76C266.781 321.44 265.821 321.28 264.621 321.28C263.794 321.28 262.941 321.347 262.061 321.48C261.181 321.613 260.287 321.813 259.381 322.08V339H256.501V320.64ZM287.394 339.6C285.341 339.6 283.634 339.2 282.274 338.4C280.941 337.573 279.941 336.413 279.274 334.92C278.608 333.4 278.274 331.613 278.274 329.56C278.274 327.267 278.581 325.413 279.194 324C279.808 322.56 280.594 321.467 281.554 320.72C282.541 319.947 283.608 319.427 284.754 319.16C285.928 318.867 287.061 318.72 288.154 318.72C289.408 318.72 290.594 318.893 291.714 319.24C292.861 319.56 293.794 320.08 294.514 320.8C295.261 321.52 295.634 322.48 295.634 323.68V339.84C295.634 340.64 295.514 341.453 295.274 342.28C295.034 343.107 294.594 343.867 293.954 344.56C293.341 345.28 292.461 345.853 291.314 346.28C290.194 346.707 288.741 346.92 286.954 346.92C285.808 346.92 284.754 346.813 283.794 346.6C282.834 346.387 281.994 346.187 281.274 346V343.28C281.701 343.387 282.181 343.507 282.714 343.64C283.274 343.8 283.874 343.933 284.514 344.04C285.181 344.147 285.888 344.2 286.634 344.2C288.448 344.2 289.781 343.973 290.634 343.52C291.514 343.093 292.088 342.547 292.354 341.88C292.621 341.24 292.754 340.587 292.754 339.92V337L293.754 338C293.248 338.267 292.608 338.52 291.834 338.76C291.061 339 290.274 339.2 289.474 339.36C288.674 339.52 287.981 339.6 287.394 339.6ZM287.394 336.96C288.248 336.96 289.141 336.853 290.074 336.64C291.034 336.4 291.928 336.04 292.754 335.56V324.08C292.754 323.333 292.541 322.773 292.114 322.4C291.714 322 291.168 321.733 290.474 321.6C289.781 321.44 289.034 321.36 288.234 321.36C286.288 321.36 284.821 321.747 283.834 322.52C282.848 323.267 282.181 324.267 281.834 325.52C281.488 326.773 281.314 328.12 281.314 329.56C281.314 331.747 281.781 333.533 282.714 334.92C283.648 336.28 285.208 336.96 287.394 336.96ZM321.889 339.6C319.996 339.6 318.356 339.213 316.969 338.44C315.583 337.64 314.516 336.453 313.769 334.88C313.023 333.307 312.649 331.347 312.649 329C312.649 325.56 313.423 322.987 314.969 321.28C316.543 319.547 318.689 318.68 321.409 318.68C323.543 318.68 325.249 319.16 326.529 320.12C327.836 321.08 328.769 322.373 329.329 324C329.889 325.627 330.156 327.467 330.129 329.52H314.089L314.289 326.88H328.249L327.129 327.28C327.049 325.28 326.543 323.787 325.609 322.8C324.703 321.813 323.303 321.32 321.409 321.32C320.103 321.32 319.009 321.56 318.129 322.04C317.276 322.52 316.636 323.36 316.209 324.56C315.783 325.733 315.569 327.387 315.569 329.52C315.569 331.947 316.129 333.8 317.249 335.08C318.396 336.333 319.996 336.96 322.049 336.96C323.036 336.96 323.943 336.893 324.769 336.76C325.596 336.6 326.356 336.387 327.049 336.12C327.743 335.853 328.356 335.56 328.889 335.24V338.2C327.929 338.653 326.863 339 325.689 339.24C324.543 339.48 323.276 339.6 321.889 339.6ZM338.404 339H335.524V311.44H338.404V339ZM344.981 339V319.04H347.861V339H344.981ZM344.821 315.48V312.32H348.021V315.48H344.821ZM360.71 339.32C359.297 339.32 358.11 338.893 357.15 338.04C356.19 337.16 355.71 335.867 355.71 334.16V321.68H352.23V319.04H355.71V313.4H358.59V319.04H363.75V321.68H358.59V333.24C358.59 334.36 358.764 335.2 359.11 335.76C359.457 336.32 360.164 336.6 361.23 336.6C361.71 336.6 362.177 336.56 362.63 336.48C363.084 336.373 363.457 336.253 363.75 336.12V338.84C363.377 338.973 362.897 339.08 362.31 339.16C361.75 339.267 361.217 339.32 360.71 339.32Z" fill="black"/>
<g id="services-btn">
<path id="Rectangle 3" d="M155 436C155 441.523 159.477 446 165 446H310C315.523 446 320 441.523 320 436V404C320 398.477 315.523 394 310 394H165C159.477 394 155 398.477 155 404V436Z" fill="#F05742"/>
<path id="Servicios" d="M177.969 424.101L180.649 423.866C180.776 424.94 181.069 425.824 181.528 426.518C181.997 427.201 182.72 427.758 183.696 428.188C184.673 428.607 185.771 428.817 186.992 428.817C188.076 428.817 189.033 428.656 189.863 428.334C190.693 428.012 191.309 427.572 191.709 427.016C192.119 426.449 192.324 425.834 192.324 425.17C192.324 424.496 192.129 423.91 191.738 423.412C191.348 422.904 190.703 422.479 189.805 422.138C189.229 421.913 187.954 421.566 185.981 421.098C184.009 420.619 182.627 420.17 181.836 419.75C180.811 419.213 180.044 418.549 179.536 417.758C179.038 416.957 178.789 416.063 178.789 415.077C178.789 413.993 179.097 412.982 179.712 412.045C180.327 411.098 181.226 410.38 182.407 409.892C183.589 409.403 184.902 409.159 186.348 409.159C187.939 409.159 189.341 409.418 190.552 409.936C191.772 410.443 192.71 411.195 193.364 412.191C194.019 413.188 194.37 414.315 194.419 415.575L191.694 415.78C191.548 414.423 191.05 413.397 190.2 412.704C189.36 412.011 188.115 411.664 186.465 411.664C184.746 411.664 183.491 411.981 182.7 412.616C181.919 413.241 181.528 413.998 181.528 414.887C181.528 415.658 181.807 416.293 182.363 416.791C182.91 417.289 184.336 417.802 186.641 418.329C188.955 418.847 190.542 419.301 191.401 419.691C192.651 420.268 193.574 421 194.17 421.889C194.766 422.768 195.063 423.783 195.063 424.936C195.063 426.078 194.736 427.157 194.082 428.173C193.428 429.179 192.485 429.965 191.255 430.531C190.034 431.088 188.657 431.366 187.124 431.366C185.181 431.366 183.55 431.083 182.231 430.517C180.923 429.95 179.893 429.101 179.141 427.968C178.398 426.825 178.008 425.536 177.969 424.101ZM209.258 425.99L211.982 426.327C211.553 427.919 210.757 429.154 209.595 430.033C208.433 430.912 206.948 431.352 205.142 431.352C202.866 431.352 201.06 430.653 199.722 429.257C198.394 427.851 197.729 425.883 197.729 423.354C197.729 420.736 198.403 418.705 199.751 417.26C201.099 415.814 202.847 415.092 204.995 415.092C207.075 415.092 208.774 415.8 210.093 417.216C211.411 418.632 212.07 420.624 212.07 423.192C212.07 423.349 212.065 423.583 212.056 423.896H200.454C200.552 425.604 201.035 426.913 201.904 427.821C202.773 428.729 203.857 429.184 205.156 429.184C206.123 429.184 206.948 428.93 207.632 428.422C208.315 427.914 208.857 427.104 209.258 425.99ZM200.601 421.728H209.287C209.17 420.419 208.838 419.438 208.291 418.783C207.451 417.768 206.362 417.26 205.024 417.26C203.813 417.26 202.793 417.665 201.963 418.476C201.143 419.286 200.688 420.37 200.601 421.728ZM215.278 431V415.443H217.651V417.802C218.257 416.698 218.813 415.971 219.321 415.619C219.839 415.268 220.405 415.092 221.021 415.092C221.909 415.092 222.812 415.375 223.73 415.941L222.822 418.388C222.178 418.007 221.533 417.816 220.889 417.816C220.312 417.816 219.795 417.992 219.336 418.344C218.877 418.686 218.55 419.164 218.354 419.779C218.062 420.717 217.915 421.742 217.915 422.855V431H215.278ZM229.619 431L223.701 415.443H226.484L229.824 424.76C230.186 425.766 230.518 426.811 230.82 427.895C231.055 427.074 231.382 426.088 231.802 424.936L235.259 415.443H237.969L232.08 431H229.619ZM240.312 412.558V409.525H242.949V412.558H240.312ZM240.312 431V415.443H242.949V431H240.312ZM257.129 425.302L259.722 425.639C259.438 427.426 258.711 428.827 257.539 429.843C256.377 430.849 254.946 431.352 253.247 431.352C251.118 431.352 249.404 430.658 248.105 429.271C246.816 427.875 246.172 425.878 246.172 423.28C246.172 421.601 246.45 420.131 247.007 418.871C247.563 417.611 248.408 416.669 249.541 416.044C250.684 415.409 251.924 415.092 253.262 415.092C254.951 415.092 256.333 415.521 257.407 416.381C258.481 417.23 259.17 418.441 259.473 420.014L256.909 420.409C256.665 419.364 256.23 418.578 255.605 418.051C254.99 417.523 254.243 417.26 253.364 417.26C252.036 417.26 250.957 417.738 250.127 418.695C249.297 419.643 248.882 421.146 248.882 423.207C248.882 425.297 249.282 426.815 250.083 427.763C250.884 428.71 251.929 429.184 253.218 429.184C254.253 429.184 255.117 428.866 255.811 428.231C256.504 427.597 256.943 426.62 257.129 425.302ZM261.992 412.558V409.525H264.629V412.558H261.992ZM261.992 431V415.443H264.629V431H261.992ZM267.676 423.222C267.676 420.341 268.477 418.207 270.078 416.82C271.416 415.668 273.047 415.092 274.971 415.092C277.109 415.092 278.857 415.795 280.215 417.201C281.572 418.598 282.251 420.531 282.251 423.002C282.251 425.004 281.948 426.581 281.343 427.733C280.747 428.876 279.873 429.765 278.721 430.399C277.578 431.034 276.328 431.352 274.971 431.352C272.793 431.352 271.03 430.653 269.683 429.257C268.345 427.86 267.676 425.849 267.676 423.222ZM270.386 423.222C270.386 425.214 270.82 426.708 271.689 427.704C272.559 428.69 273.652 429.184 274.971 429.184C276.279 429.184 277.368 428.686 278.237 427.689C279.106 426.693 279.541 425.175 279.541 423.134C279.541 421.21 279.102 419.755 278.223 418.769C277.354 417.772 276.27 417.274 274.971 417.274C273.652 417.274 272.559 417.768 271.689 418.754C270.82 419.74 270.386 421.229 270.386 423.222ZM284.302 426.356L286.909 425.946C287.056 426.991 287.461 427.792 288.125 428.349C288.799 428.905 289.736 429.184 290.938 429.184C292.148 429.184 293.047 428.939 293.633 428.451C294.219 427.953 294.512 427.372 294.512 426.708C294.512 426.112 294.253 425.644 293.735 425.302C293.374 425.067 292.476 424.77 291.04 424.408C289.106 423.92 287.764 423.5 287.012 423.148C286.27 422.787 285.703 422.294 285.312 421.669C284.932 421.034 284.741 420.336 284.741 419.574C284.741 418.881 284.897 418.241 285.21 417.655C285.532 417.06 285.967 416.566 286.514 416.176C286.924 415.873 287.48 415.619 288.184 415.414C288.896 415.199 289.658 415.092 290.469 415.092C291.689 415.092 292.759 415.268 293.677 415.619C294.604 415.971 295.288 416.449 295.728 417.055C296.167 417.65 296.47 418.451 296.636 419.457L294.058 419.809C293.94 419.008 293.599 418.383 293.032 417.934C292.476 417.484 291.685 417.26 290.659 417.26C289.448 417.26 288.584 417.46 288.066 417.86C287.549 418.261 287.29 418.729 287.29 419.267C287.29 419.608 287.397 419.916 287.612 420.189C287.827 420.473 288.164 420.707 288.623 420.893C288.887 420.99 289.663 421.215 290.952 421.566C292.817 422.064 294.116 422.475 294.849 422.797C295.591 423.109 296.172 423.568 296.592 424.174C297.012 424.779 297.222 425.531 297.222 426.43C297.222 427.309 296.963 428.139 296.445 428.92C295.938 429.691 295.2 430.292 294.233 430.722C293.267 431.142 292.173 431.352 290.952 431.352C288.931 431.352 287.388 430.932 286.323 430.092C285.269 429.252 284.595 428.007 284.302 426.356Z" fill="white"/>
</g>
</g>
</svg>
