<svg width="400" height="350" viewBox="0 0 400 350" fill="none" xmlns="http://www.w3.org/2000/svg">
<path d="M387.5 1.82648e-07H12.5C9.22235 -0.000624439 6.07563 1.60084 3.73761 4.45946C1.3996 7.31807 0.0573589 11.2051 0 15.2833L0 295.828C0.0573589 299.906 1.3996 303.793 3.73761 306.652C6.07563 309.51 9.22235 311.112 12.5 311.111H168.75V334.444H143.75C142.092 334.444 140.503 335.264 139.331 336.723C138.158 338.181 137.5 340.159 137.5 342.222C137.5 344.285 138.158 346.263 139.331 347.722C140.503 349.181 142.092 350 143.75 350H256.25C257.908 350 259.497 349.181 260.669 347.722C261.842 346.263 262.5 344.285 262.5 342.222C262.5 340.159 261.842 338.181 260.669 336.723C259.497 335.264 257.908 334.444 256.25 334.444H231.25V311.111H387.5C390.778 311.112 393.924 309.51 396.262 306.652C398.6 303.793 399.943 299.906 400 295.828V15.2833C399.943 11.2051 398.6 7.31807 396.262 4.45946C393.924 1.60084 390.778 -0.000624439 387.5 1.82648e-07ZM12.5 15.5556H387.5V264.444H12.5V15.5556ZM218.75 311.111V334.444H181.25V311.111H218.75ZM387.5 295.556H12.5V280H387.5V295.556Z" fill="#F05742"/>
<path d="M176.562 62.2223H179.688C181.345 62.2223 182.935 61.4029 184.107 59.9443C185.279 58.4856 185.938 56.5073 185.938 54.4445C185.938 52.3817 185.279 50.4034 184.107 48.9448C182.935 47.4862 181.345 46.6667 179.688 46.6667H176.562C174.905 46.6667 173.315 47.4862 172.143 48.9448C170.971 50.4034 170.312 52.3817 170.312 54.4445C170.312 56.5073 170.971 58.4856 172.143 59.9443C173.315 61.4029 174.905 62.2223 176.562 62.2223Z" fill="#F05742"/>
<path d="M145.312 62.2223H148.438C150.095 62.2223 151.685 61.4029 152.857 59.9443C154.029 58.4856 154.688 56.5073 154.688 54.4445C154.688 52.3817 154.029 50.4034 152.857 48.9448C151.685 47.4862 150.095 46.6667 148.438 46.6667H145.312C143.655 46.6667 142.065 47.4862 140.893 48.9448C139.721 50.4034 139.062 52.3817 139.062 54.4445C139.062 56.5073 139.721 58.4856 140.893 59.9443C142.065 61.4029 143.655 62.2223 145.312 62.2223Z" fill="#F05742"/>
<path d="M239.062 62.2223H242.188C243.845 62.2223 245.435 61.4029 246.607 59.9443C247.779 58.4856 248.438 56.5073 248.438 54.4445C248.438 52.3817 247.779 50.4034 246.607 48.9448C245.435 47.4862 243.845 46.6667 242.188 46.6667H239.062C237.405 46.6667 235.815 47.4862 234.643 48.9448C233.471 50.4034 232.812 52.3817 232.812 54.4445C232.812 56.5073 233.471 58.4856 234.643 59.9443C235.815 61.4029 237.405 62.2223 239.062 62.2223Z" fill="#F05742"/>
<path d="M207.812 62.2223H210.938C212.595 62.2223 214.185 61.4029 215.357 59.9443C216.529 58.4856 217.188 56.5073 217.188 54.4445C217.188 52.3817 216.529 50.4034 215.357 48.9448C214.185 47.4862 212.595 46.6667 210.938 46.6667H207.812C206.155 46.6667 204.565 47.4862 203.393 48.9448C202.221 50.4034 201.562 52.3817 201.562 54.4445C201.562 56.5073 202.221 58.4856 203.393 59.9443C204.565 61.4029 206.155 62.2223 207.812 62.2223Z" fill="#F05742"/>
<path d="M270.312 62.2223H273.438C275.095 62.2223 276.685 61.4029 277.857 59.9443C279.029 58.4856 279.688 56.5073 279.688 54.4445C279.688 52.3817 279.029 50.4034 277.857 48.9448C276.685 47.4862 275.095 46.6667 273.438 46.6667H270.312C268.655 46.6667 267.065 47.4862 265.893 48.9448C264.721 50.4034 264.062 52.3817 264.062 54.4445C264.062 56.5073 264.721 58.4856 265.893 59.9443C267.065 61.4029 268.655 62.2223 270.312 62.2223Z" fill="#F05742"/>
<path d="M301.562 62.2223H304.688C306.345 62.2223 307.935 61.4029 309.107 59.9443C310.279 58.4856 310.938 56.5073 310.938 54.4445C310.938 52.3817 310.279 50.4034 309.107 48.9448C307.935 47.4862 306.345 46.6667 304.688 46.6667H301.562C299.905 46.6667 298.315 47.4862 297.143 48.9448C295.971 50.4034 295.312 52.3817 295.312 54.4445C295.312 56.5073 295.971 58.4856 297.143 59.9443C298.315 61.4029 299.905 62.2223 301.562 62.2223Z" fill="#F05742"/>
<path d="M176.562 93.3334H179.688C181.345 93.3334 182.935 92.514 184.107 91.0553C185.279 89.5967 185.938 87.6184 185.938 85.5556C185.938 83.4928 185.279 81.5145 184.107 80.0559C182.935 78.5973 181.345 77.7778 179.688 77.7778H176.562C174.905 77.7778 173.315 78.5973 172.143 80.0559C170.971 81.5145 170.312 83.4928 170.312 85.5556C170.312 87.6184 170.971 89.5967 172.143 91.0553C173.315 92.514 174.905 93.3334 176.562 93.3334Z" fill="#F05742"/>
<path d="M207.812 93.3334H210.938C212.595 93.3334 214.185 92.514 215.357 91.0553C216.529 89.5967 217.188 87.6184 217.188 85.5556C217.188 83.4928 216.529 81.5145 215.357 80.0559C214.185 78.5973 212.595 77.7778 210.938 77.7778H207.812C206.155 77.7778 204.565 78.5973 203.393 80.0559C202.221 81.5145 201.562 83.4928 201.562 85.5556C201.562 87.6184 202.221 89.5967 203.393 91.0553C204.565 92.514 206.155 93.3334 207.812 93.3334Z" fill="#F05742"/>
<path d="M239.062 93.3334H242.188C243.845 93.3334 245.435 92.514 246.607 91.0553C247.779 89.5967 248.438 87.6184 248.438 85.5556C248.438 83.4928 247.779 81.5145 246.607 80.0559C245.435 78.5973 243.845 77.7778 242.188 77.7778H239.062C237.405 77.7778 235.815 78.5973 234.643 80.0559C233.471 81.5145 232.812 83.4928 232.812 85.5556C232.812 87.6184 233.471 89.5967 234.643 91.0553C235.815 92.514 237.405 93.3334 239.062 93.3334Z" fill="#F05742"/>
<path d="M301.562 93.3334H304.688C306.345 93.3334 307.935 92.514 309.107 91.0553C310.279 89.5967 310.938 87.6184 310.938 85.5556C310.938 83.4928 310.279 81.5145 309.107 80.0559C307.935 78.5973 306.345 77.7778 304.688 77.7778H301.562C299.905 77.7778 298.315 78.5973 297.143 80.0559C295.971 81.5145 295.312 83.4928 295.312 85.5556C295.312 87.6184 295.971 89.5967 297.143 91.0553C298.315 92.514 299.905 93.3334 301.562 93.3334Z" fill="#F05742"/>
<path d="M145.312 93.3334H148.438C150.095 93.3334 151.685 92.514 152.857 91.0553C154.029 89.5967 154.688 87.6184 154.688 85.5556C154.688 83.4928 154.029 81.5145 152.857 80.0559C151.685 78.5973 150.095 77.7778 148.438 77.7778H145.312C143.655 77.7778 142.065 78.5973 140.893 80.0559C139.721 81.5145 139.062 83.4928 139.062 85.5556C139.062 87.6184 139.721 89.5967 140.893 91.0553C142.065 92.514 143.655 93.3334 145.312 93.3334Z" fill="#F05742"/>
<path d="M270.312 93.3334H273.438C275.095 93.3334 276.685 92.514 277.857 91.0553C279.029 89.5967 279.688 87.6184 279.688 85.5556C279.688 83.4928 279.029 81.5145 277.857 80.0559C276.685 78.5973 275.095 77.7778 273.438 77.7778H270.312C268.655 77.7778 267.065 78.5973 265.893 80.0559C264.721 81.5145 264.062 83.4928 264.062 85.5556C264.062 87.6184 264.721 89.5967 265.893 91.0553C267.065 92.514 268.655 93.3334 270.312 93.3334Z" fill="#F05742"/>
<path d="M301.562 124.444H304.688C306.345 124.444 307.935 123.625 309.107 122.166C310.279 120.708 310.938 118.729 310.938 116.667C310.938 114.604 310.279 112.626 309.107 111.167C307.935 109.708 306.345 108.889 304.688 108.889H301.562C299.905 108.889 298.315 109.708 297.143 111.167C295.971 112.626 295.312 114.604 295.312 116.667C295.312 118.729 295.971 120.708 297.143 122.166C298.315 123.625 299.905 124.444 301.562 124.444Z" fill="#F05742"/>
<path d="M270.312 124.444H273.438C275.095 124.444 276.685 123.625 277.857 122.166C279.029 120.708 279.688 118.729 279.688 116.667C279.688 114.604 279.029 112.626 277.857 111.167C276.685 109.708 275.095 108.889 273.438 108.889H270.312C268.655 108.889 267.065 109.708 265.893 111.167C264.721 112.626 264.062 114.604 264.062 116.667C264.062 118.729 264.721 120.708 265.893 122.166C267.065 123.625 268.655 124.444 270.312 124.444Z" fill="#F05742"/>
<path d="M239.062 124.444H242.188C243.845 124.444 245.435 123.625 246.607 122.166C247.779 120.708 248.438 118.729 248.438 116.667C248.438 114.604 247.779 112.626 246.607 111.167C245.435 109.708 243.845 108.889 242.188 108.889H239.062C237.405 108.889 235.815 109.708 234.643 111.167C233.471 112.626 232.812 114.604 232.812 116.667C232.812 118.729 233.471 120.708 234.643 122.166C235.815 123.625 237.405 124.444 239.062 124.444Z" fill="#F05742"/>
<path d="M207.812 124.444H210.938C212.595 124.444 214.185 123.625 215.357 122.166C216.529 120.708 217.188 118.729 217.188 116.667C217.188 114.604 216.529 112.626 215.357 111.167C214.185 109.708 212.595 108.889 210.938 108.889H207.812C206.155 108.889 204.565 109.708 203.393 111.167C202.221 112.626 201.562 114.604 201.562 116.667C201.562 118.729 202.221 120.708 203.393 122.166C204.565 123.625 206.155 124.444 207.812 124.444Z" fill="#F05742"/>
<path d="M145.312 124.444H148.438C150.095 124.444 151.685 123.625 152.857 122.166C154.029 120.708 154.688 118.729 154.688 116.667C154.688 114.604 154.029 112.626 152.857 111.167C151.685 109.708 150.095 108.889 148.438 108.889H145.312C143.655 108.889 142.065 109.708 140.893 111.167C139.721 112.626 139.062 114.604 139.062 116.667C139.062 118.729 139.721 120.708 140.893 122.166C142.065 123.625 143.655 124.444 145.312 124.444Z" fill="#F05742"/>
<path d="M176.562 124.444H179.688C181.345 124.444 182.935 123.625 184.107 122.166C185.279 120.708 185.938 118.729 185.938 116.667C185.938 114.604 185.279 112.626 184.107 111.167C182.935 109.708 181.345 108.889 179.688 108.889H176.562C174.905 108.889 173.315 109.708 172.143 111.167C170.971 112.626 170.312 114.604 170.312 116.667C170.312 118.729 170.971 120.708 172.143 122.166C173.315 123.625 174.905 124.444 176.562 124.444Z" fill="#F05742"/>
<path d="M148.438 163.333C148.438 165.396 149.096 167.375 150.268 168.833C151.44 170.292 153.03 171.111 154.688 171.111H157.812C159.47 171.111 161.06 170.292 162.232 168.833C163.404 167.375 164.062 165.396 164.062 163.333C164.062 161.271 163.404 159.292 162.232 157.834C161.06 156.375 159.47 155.556 157.812 155.556H154.688C153.03 155.556 151.44 156.375 150.268 157.834C149.096 159.292 148.438 161.271 148.438 163.333Z" fill="#F05742"/>
<path d="M210.938 163.333C210.938 165.396 211.596 167.375 212.768 168.833C213.94 170.292 215.53 171.111 217.188 171.111H220.312C221.97 171.111 223.56 170.292 224.732 168.833C225.904 167.375 226.562 165.396 226.562 163.333C226.562 161.271 225.904 159.292 224.732 157.834C223.56 156.375 221.97 155.556 220.312 155.556H217.188C215.53 155.556 213.94 156.375 212.768 157.834C211.596 159.292 210.938 161.271 210.938 163.333Z" fill="#F05742"/>
<path d="M304.688 163.333C304.688 165.396 305.346 167.375 306.518 168.833C307.69 170.292 309.28 171.111 310.938 171.111H314.062C315.72 171.111 317.31 170.292 318.482 168.833C319.654 167.375 320.312 165.396 320.312 163.333C320.312 161.271 319.654 159.292 318.482 157.834C317.31 156.375 315.72 155.556 314.062 155.556H310.938C309.28 155.556 307.69 156.375 306.518 157.834C305.346 159.292 304.688 161.271 304.688 163.333Z" fill="#F05742"/>
<path d="M273.438 163.333C273.438 165.396 274.096 167.375 275.268 168.833C276.44 170.292 278.03 171.111 279.688 171.111H282.812C284.47 171.111 286.06 170.292 287.232 168.833C288.404 167.375 289.062 165.396 289.062 163.333C289.062 161.271 288.404 159.292 287.232 157.834C286.06 156.375 284.47 155.556 282.812 155.556H279.688C278.03 155.556 276.44 156.375 275.268 157.834C274.096 159.292 273.438 161.271 273.438 163.333Z" fill="#F05742"/>
<path d="M242.188 163.333C242.188 165.396 242.846 167.375 244.018 168.833C245.19 170.292 246.78 171.111 248.438 171.111H251.562C253.22 171.111 254.81 170.292 255.982 168.833C257.154 167.375 257.812 165.396 257.812 163.333C257.812 161.271 257.154 159.292 255.982 157.834C254.81 156.375 253.22 155.556 251.562 155.556H248.438C246.78 155.556 245.19 156.375 244.018 157.834C242.846 159.292 242.188 161.271 242.188 163.333Z" fill="#F05742"/>
<path d="M179.688 163.333C179.688 165.396 180.346 167.375 181.518 168.833C182.69 170.292 184.28 171.111 185.938 171.111H189.062C190.72 171.111 192.31 170.292 193.482 168.833C194.654 167.375 195.312 165.396 195.312 163.333C195.312 161.271 194.654 159.292 193.482 157.834C192.31 156.375 190.72 155.556 189.062 155.556H185.938C184.28 155.556 182.69 156.375 181.518 157.834C180.346 159.292 179.688 161.271 179.688 163.333Z" fill="#F05742"/>
<path d="M220.312 194.445C220.312 196.507 220.971 198.486 222.143 199.944C223.315 201.403 224.905 202.222 226.562 202.222H229.688C231.345 202.222 232.935 201.403 234.107 199.944C235.279 198.486 235.938 196.507 235.938 194.445C235.938 192.382 235.279 190.403 234.107 188.945C232.935 187.486 231.345 186.667 229.688 186.667H226.562C224.905 186.667 223.315 187.486 222.143 188.945C220.971 190.403 220.312 192.382 220.312 194.445Z" fill="#F05742"/>
<path d="M189.062 194.445C189.062 196.507 189.721 198.486 190.893 199.944C192.065 201.403 193.655 202.222 195.312 202.222H198.438C200.095 202.222 201.685 201.403 202.857 199.944C204.029 198.486 204.688 196.507 204.688 194.445C204.688 192.382 204.029 190.403 202.857 188.945C201.685 187.486 200.095 186.667 198.438 186.667H195.312C193.655 186.667 192.065 187.486 190.893 188.945C189.721 190.403 189.062 192.382 189.062 194.445Z" fill="#F05742"/>
<path d="M314.062 194.445C314.062 196.507 314.721 198.486 315.893 199.944C317.065 201.403 318.655 202.222 320.312 202.222H323.438C325.095 202.222 326.685 201.403 327.857 199.944C329.029 198.486 329.688 196.507 329.688 194.445C329.688 192.382 329.029 190.403 327.857 188.945C326.685 187.486 325.095 186.667 323.438 186.667H320.312C318.655 186.667 317.065 187.486 315.893 188.945C314.721 190.403 314.062 192.382 314.062 194.445Z" fill="#F05742"/>
<path d="M251.562 194.445C251.562 196.507 252.221 198.486 253.393 199.944C254.565 201.403 256.155 202.222 257.812 202.222H260.938C262.595 202.222 264.185 201.403 265.357 199.944C266.529 198.486 267.188 196.507 267.188 194.445C267.188 192.382 266.529 190.403 265.357 188.945C264.185 187.486 262.595 186.667 260.938 186.667H257.812C256.155 186.667 254.565 187.486 253.393 188.945C252.221 190.403 251.562 192.382 251.562 194.445Z" fill="#F05742"/>
<path d="M282.812 194.445C282.812 196.507 283.471 198.486 284.643 199.944C285.815 201.403 287.405 202.222 289.062 202.222H292.188C293.845 202.222 295.435 201.403 296.607 199.944C297.779 198.486 298.438 196.507 298.438 194.445C298.438 192.382 297.779 190.403 296.607 188.945C295.435 187.486 293.845 186.667 292.188 186.667H289.062C287.405 186.667 285.815 187.486 284.643 188.945C283.471 190.403 282.812 192.382 282.812 194.445Z" fill="#F05742"/>
<path d="M157.812 194.445C157.812 196.507 158.471 198.486 159.643 199.944C160.815 201.403 162.405 202.222 164.062 202.222H167.188C168.845 202.222 170.435 201.403 171.607 199.944C172.779 198.486 173.438 196.507 173.438 194.445C173.438 192.382 172.779 190.403 171.607 188.945C170.435 187.486 168.845 186.667 167.188 186.667H164.062C162.405 186.667 160.815 187.486 159.643 188.945C158.471 190.403 157.812 192.382 157.812 194.445Z" fill="#F05742"/>
<path d="M242.188 217.778H239.062C237.405 217.778 235.815 218.597 234.643 220.056C233.471 221.515 232.812 223.493 232.812 225.556C232.812 227.618 233.471 229.597 234.643 231.055C235.815 232.514 237.405 233.333 239.062 233.333H242.188C243.845 233.333 245.435 232.514 246.607 231.055C247.779 229.597 248.438 227.618 248.438 225.556C248.438 223.493 247.779 221.515 246.607 220.056C245.435 218.597 243.845 217.778 242.188 217.778Z" fill="#F05742"/>
<path d="M304.688 217.778H301.562C299.905 217.778 298.315 218.597 297.143 220.056C295.971 221.515 295.312 223.493 295.312 225.556C295.312 227.618 295.971 229.597 297.143 231.055C298.315 232.514 299.905 233.333 301.562 233.333H304.688C306.345 233.333 307.935 232.514 309.107 231.055C310.279 229.597 310.938 227.618 310.938 225.556C310.938 223.493 310.279 221.515 309.107 220.056C307.935 218.597 306.345 217.778 304.688 217.778Z" fill="#F05742"/>
<path d="M273.438 217.778H270.312C268.655 217.778 267.065 218.597 265.893 220.056C264.721 221.515 264.062 223.493 264.062 225.556C264.062 227.618 264.721 229.597 265.893 231.055C267.065 232.514 268.655 233.333 270.312 233.333H273.438C275.095 233.333 276.685 232.514 277.857 231.055C279.029 229.597 279.688 227.618 279.688 225.556C279.688 223.493 279.029 221.515 277.857 220.056C276.685 218.597 275.095 217.778 273.438 217.778Z" fill="#F05742"/>
<path d="M210.938 217.778H207.812C206.155 217.778 204.565 218.597 203.393 220.056C202.221 221.515 201.562 223.493 201.562 225.556C201.562 227.618 202.221 229.597 203.393 231.055C204.565 232.514 206.155 233.333 207.812 233.333H210.938C212.595 233.333 214.185 232.514 215.357 231.055C216.529 229.597 217.188 227.618 217.188 225.556C217.188 223.493 216.529 221.515 215.357 220.056C214.185 218.597 212.595 217.778 210.938 217.778Z" fill="#F05742"/>
<path d="M145.312 233.333H148.438C150.095 233.333 151.685 232.514 152.857 231.055C154.029 229.597 154.688 227.618 154.688 225.556C154.688 223.493 154.029 221.515 152.857 220.056C151.685 218.597 150.095 217.778 148.438 217.778H145.312C143.655 217.778 142.065 218.597 140.893 220.056C139.721 221.515 139.062 223.493 139.062 225.556C139.062 227.618 139.721 229.597 140.893 231.055C142.065 232.514 143.655 233.333 145.312 233.333Z" fill="#F05742"/>
<path d="M179.688 217.778H176.562C174.905 217.778 173.315 218.597 172.143 220.056C170.971 221.515 170.312 223.493 170.312 225.556C170.312 227.618 170.971 229.597 172.143 231.055C173.315 232.514 174.905 233.333 176.562 233.333H179.688C181.345 233.333 182.935 232.514 184.107 231.055C185.279 229.597 185.938 227.618 185.938 225.556C185.938 223.493 185.279 221.515 184.107 220.056C182.935 218.597 181.345 217.778 179.688 217.778Z" fill="#F05742"/>
<path d="M69.5948 92.7111L84.6261 107.256C85.7695 108.362 87.1862 108.939 88.634 108.89C90.0818 108.84 91.4708 108.166 92.5636 106.983L121.282 75.8722C122.392 74.4732 123.035 72.6032 123.082 70.6383C123.128 68.6734 122.575 66.7594 121.534 65.2812C120.493 63.803 119.04 62.8704 117.469 62.6708C115.897 62.4713 114.323 63.0196 113.064 64.2056L88.2198 91.1167L77.2511 80.5C75.9377 79.3027 74.3007 78.7904 72.6884 79.0722C71.0761 79.354 69.6159 80.4076 68.6183 82.0088C67.6207 83.6099 67.1646 85.6324 67.347 87.6457C67.5293 89.659 68.3358 91.5043 69.5948 92.7889V92.7111Z" fill="#F05742"/>
<path d="M69.0338 219.372C69.6142 220.095 70.3035 220.669 71.0622 221.06C71.821 221.452 72.6343 221.653 73.4556 221.653C74.277 221.653 75.0903 221.452 75.849 221.06C76.6077 220.669 77.297 220.095 77.8775 219.372L89.0963 205.411L100.315 219.372C101.488 220.832 103.078 221.652 104.737 221.652C106.395 221.652 107.986 220.832 109.159 219.372C110.332 217.913 110.99 215.933 110.99 213.869C110.99 211.806 110.332 209.826 109.159 208.367L97.9088 194.444L109.127 180.483C110.3 179.024 110.959 177.045 110.959 174.981C110.959 172.917 110.3 170.937 109.127 169.478C107.955 168.018 106.364 167.198 104.706 167.198C103.047 167.198 101.457 168.018 100.284 169.478L89.065 183.439L77.8463 169.478C77.2656 168.755 76.5762 168.182 75.8175 167.791C75.0588 167.4 74.2456 167.198 73.4244 167.198C72.6032 167.198 71.79 167.4 71.0313 167.791C70.2726 168.182 69.5832 168.755 69.0025 169.478C68.4218 170.2 67.9612 171.058 67.6469 172.002C67.3327 172.947 67.1709 173.959 67.1709 174.981C67.1709 176.003 67.3327 177.015 67.6469 177.959C67.9612 178.903 68.4218 179.761 69.0025 180.483L80.2213 194.444L69.0025 208.406C67.8426 209.868 67.1948 211.842 67.2007 213.897C67.2065 215.952 67.8655 217.92 69.0338 219.372Z" fill="#F05742"/>
</svg>
