<svg width="400" height="350" viewBox="0 0 400 350" fill="none" xmlns="http://www.w3.org/2000/svg">
<path d="M374.208 220.308H374.176C391.058 197.625 400.529 171.124 399.977 142.98C398.424 61.9905 314.612 -2.00058 212.803 0.0478382C110.995 2.09258 29.7341 69.4105 31.2909 150.382C31.3197 151.867 31.3737 153.344 31.4638 154.818L36.444 151.543C36.4224 151.093 63.3195 136.92 63.3195 136.47C63.3195 77.5747 146.865 20.9557 212.789 20.9557C272.223 20.9557 373.981 55.8121 373.981 143.264C373.977 169.691 359.134 196.177 343.084 217.468C329.65 238.752 345.682 286.694 345.682 286.694L292.947 257.994C279.156 262.386 257.812 264.442 251.956 266.133C244.897 283.017 233.935 292.493 233.935 292.493C252.501 291.167 266.828 287.936 283.416 282.583L376.839 323.636C376.835 323.632 345.199 258.307 374.208 220.308ZM125.971 132.245C57.4601 130.867 1.06399 173.932 0.0153456 228.436C-0.355824 247.373 6.02252 265.204 17.3738 280.468H17.3558C36.8728 306.036 15.5864 350 15.5864 350L78.4546 322.376C92.004 326.749 106.728 329.287 122.155 329.6C190.667 330.978 247.063 287.917 248.115 233.413C249.167 178.92 194.483 133.623 125.971 132.245Z" fill="#F05742"/>
</svg>
