<svg width="203" height="203" viewBox="0 0 203 203" fill="none" xmlns="http://www.w3.org/2000/svg">
<path d="M101.5 203C157.557 203 203 157.557 203 101.5C203 45.4431 157.557 0 101.5 0C45.4431 0 0 45.4431 0 101.5C0 157.557 45.4431 203 101.5 203Z" fill="#F05742"/>
<path d="M121.917 51.968C116.16 52.41 110.58 54.1541 105.605 57.0764C105.429 58.5942 105.384 60.1243 105.479 61.6488C104.824 60.5333 104.326 59.3309 103.999 58.0714C96.2711 63.1288 90.6531 70.8369 88.1842 79.7361C85.3502 83.5911 83.0073 87.7786 81.2 92.2064C89.2803 78.8109 100.144 67.3106 113.055 58.487C105.265 65.6922 97.8899 73.3318 90.9743 81.3866C100.043 79.686 108.224 74.8431 114.082 67.7134C111.814 67.5061 109.528 67.5807 107.28 67.934C109.837 66.7623 112.602 66.1078 115.411 65.994C116.224 64.8856 116.979 63.7267 117.672 62.5427C115.877 62.7066 114.095 63.0277 112.356 63.5127C114.239 62.3789 116.299 61.5793 118.453 61.1387C119.983 58.2419 121.148 55.1553 121.917 51.968Z" fill="#FFE8E1"/>
<path d="M86.6163 93.0513C89.0786 91.5202 92.0831 91.1235 94.8538 91.9675C98.2734 93.3587 102.096 93.3908 105.529 92.043C105.774 91.9424 105.894 91.6647 105.799 91.4324C105.705 91.1863 105.428 91.0603 105.182 91.1613C101.964 92.4208 98.374 92.3953 95.1745 91.0725C92.1265 90.1346 88.8264 90.5691 86.118 92.2503C85.8914 92.383 85.8286 92.673 85.9669 92.9054C86.1001 93.1264 86.3957 93.1948 86.6163 93.0513Z" fill="#FFE8E1"/>
<path d="M50.2075 117.017C50.2075 118.319 49.9056 119.507 49.3207 120.583C48.717 121.658 47.8868 122.507 46.8302 123.13C45.7548 123.752 44.585 124.073 43.2642 124.073C42.302 124.073 41.3964 123.884 40.5285 123.526C39.6794 123.167 38.9436 122.677 38.3398 122.035C37.7361 121.432 37.2644 120.696 36.9059 119.828C36.5663 118.96 36.3776 118.054 36.3776 117.092C36.3776 115.79 36.6795 114.602 37.2832 113.526C37.8681 112.451 38.6983 111.583 39.7738 110.96C40.8303 110.338 42.019 110.036 43.3208 110.036C44.2831 110.036 45.1887 110.205 46.0566 110.564C46.9057 110.941 47.6415 111.432 48.2453 112.036C48.849 112.677 49.3396 113.413 49.6792 114.262C50.0377 115.13 50.2075 116.036 50.2075 117.017ZM48.717 117.092C48.717 115.545 48.1509 114.111 47.2076 113.073C46.2642 112.036 44.8491 111.375 43.2642 111.375C42.2454 111.375 41.3209 111.639 40.4907 112.13C39.6605 112.658 39.019 113.337 38.5662 114.187C38.1134 115.054 37.887 115.998 37.887 117.017C37.887 118.545 38.453 119.998 39.3964 121.017C40.3398 122.054 41.7548 122.715 43.3208 122.715C44.3397 122.715 45.2642 122.45 46.0944 121.941C46.9434 121.451 47.5849 120.752 48.0377 119.903C48.4906 119.054 48.717 118.111 48.717 117.092ZM63.5865 123.922H61.8318L57.7564 118.356H54.964V123.922H53.5112V110.168H58.2847C59.9073 110.168 61.2092 110.621 61.9639 111.375C62.7186 112.13 63.1148 113.073 63.1148 114.187C63.1148 116.507 61.379 117.847 59.3413 118.111L63.5865 123.922ZM54.964 111.526V117.036H58.1526C59.3601 117.036 60.3035 116.696 60.8507 116.149C61.379 115.62 61.6431 114.96 61.6431 114.224C61.6431 112.866 60.8129 111.526 58.1904 111.526H54.964ZM71.1165 111.526V123.922H69.6826V111.526H65.0789V110.168H75.7202V111.526H71.1165ZM91.3255 117.017C91.3255 118.319 91.0236 119.507 90.4388 120.583C89.835 121.658 89.0048 122.507 87.9482 123.13C86.8728 123.752 85.703 124.073 84.3823 124.073C83.42 124.073 82.5144 123.884 81.6465 123.526C80.7974 123.167 80.0616 122.677 79.4578 122.035C78.8541 121.432 78.3824 120.696 78.0239 119.828C77.6843 118.96 77.4956 118.054 77.4956 117.092C77.4956 115.79 77.7975 114.602 78.4013 113.526C78.9862 112.451 79.8163 111.583 80.8918 110.96C81.9484 110.338 83.137 110.036 84.4389 110.036C85.4011 110.036 86.3068 110.205 87.1747 110.564C88.0237 110.941 88.7595 111.432 89.3633 112.036C89.9671 112.677 90.4576 113.413 90.7972 114.262C91.1557 115.13 91.3255 116.036 91.3255 117.017ZM89.835 117.092C89.835 115.545 89.269 114.111 88.3256 113.073C87.3822 112.036 85.9671 111.375 84.3823 111.375C83.3634 111.375 82.4389 111.639 81.6087 112.13C80.7786 112.658 80.1371 113.337 79.6843 114.187C79.2314 115.054 79.005 115.998 79.005 117.017C79.005 118.545 79.571 119.998 80.5144 121.017C81.4578 122.054 82.8729 122.715 84.4389 122.715C85.4577 122.715 86.3822 122.45 87.2124 121.941C88.0614 121.451 88.7029 120.752 89.1558 119.903C89.6086 119.054 89.835 118.111 89.835 117.092ZM106.667 114.111L105.289 114.602C105.12 114.111 104.893 113.602 104.346 112.979C104.082 112.696 103.78 112.413 103.44 112.187C102.761 111.715 101.705 111.375 100.554 111.375C99.5159 111.375 98.5914 111.621 97.7612 112.149C96.9311 112.677 96.2896 113.356 95.8368 114.224C95.3839 115.073 95.1575 115.998 95.1575 117.017C95.1575 118.564 95.6858 119.998 96.5915 121.035C97.516 122.073 98.9499 122.715 100.573 122.715C101.799 122.715 102.969 122.318 103.855 121.639C104.742 120.96 105.346 119.866 105.421 118.602H99.6857V117.262H106.969V117.79C106.969 119.526 106.346 121.092 105.271 122.224C104.176 123.356 102.497 124.054 100.554 124.054C98.4971 124.054 96.7047 123.3 95.5349 122.054C94.3651 120.809 93.667 119.035 93.667 117.092C93.667 115.79 93.9689 114.583 94.5726 113.507C95.1764 112.432 96.0066 111.583 97.0631 110.96C98.1197 110.338 99.3084 110.036 100.591 110.036C102.214 110.036 103.648 110.488 104.629 111.281C105.629 112.054 106.289 112.998 106.667 114.111ZM120.215 123.922H118.461L114.385 118.356H111.593V123.922H110.14V110.168H114.914C116.536 110.168 117.838 110.621 118.593 111.375C119.348 112.13 119.744 113.073 119.744 114.187C119.744 116.507 118.008 117.847 115.97 118.111L120.215 123.922ZM111.593 111.526V117.036H114.782C115.989 117.036 116.933 116.696 117.48 116.149C118.008 115.62 118.272 114.96 118.272 114.224C118.272 112.866 117.442 111.526 114.819 111.526H111.593ZM133.368 123.922L131.859 120.413H124.368L122.859 123.922H121.387L127.312 110.168H128.953L134.896 123.922H133.368ZM131.312 119.092L128.104 111.658L124.915 119.092H131.312ZM138.766 111.526V116.469H145.238V117.79H138.766V123.922H137.313V110.168H145.841V111.526H138.766ZM150.881 105.885H152.541L150.296 108.904H148.975L150.881 105.885ZM148.919 123.922V110.168H150.371V123.922H148.919ZM164.769 123.922L163.26 120.413H155.769L154.26 123.922H152.788L158.713 110.168H160.354L166.298 123.922H164.769ZM162.713 119.092L159.505 111.658L156.317 119.092H162.713Z" fill="#FFE8E1"/>
<path d="M46.3093 150.897C43.5808 150.897 41.0433 149.833 39.2698 148.087C38.3967 147.213 37.6873 146.149 37.1689 144.894C36.6504 143.612 36.3776 142.248 36.3776 140.801C36.3776 139.328 36.6504 137.937 37.1961 136.654C37.7418 135.372 38.4512 134.28 39.3517 133.407C41.1797 131.634 43.7172 130.57 46.3912 130.57C48.4921 130.57 50.4021 131.197 51.6844 132.098C52.3393 132.534 52.9123 133.053 53.4307 133.625C54.4402 134.799 54.9859 135.972 55.2861 137.118L53.2943 137.827C53.1305 137.173 52.8577 136.463 52.121 135.426C51.739 134.908 51.3297 134.444 50.8386 134.035C50.3475 133.625 49.7199 133.271 48.9287 132.998C48.1374 132.698 47.2916 132.561 46.3366 132.561C44.2629 132.561 42.2711 133.407 40.8796 134.799C39.4608 136.218 38.5604 138.319 38.5604 140.665C38.5604 142.22 38.8878 143.639 39.5699 144.894C40.2248 146.149 41.1525 147.132 42.3803 147.841C43.5535 148.55 44.8905 148.905 46.3639 148.905C48.192 148.905 49.7745 148.278 50.7295 147.514C51.2206 147.132 51.6572 146.695 52.0392 146.149C52.4211 145.631 52.694 145.167 52.885 144.785C53.0487 144.403 53.2124 143.994 53.3488 143.585L55.3406 144.294C55.0405 145.358 54.5221 146.449 53.5125 147.677C53.0214 148.278 52.4211 148.823 51.7936 149.287C50.4839 150.215 48.4921 150.897 46.3093 150.897ZM78.3446 140.692C78.3446 142.575 77.908 144.294 77.0622 145.849C76.1891 147.404 74.9885 148.632 73.4606 149.533C71.9053 150.433 70.2136 150.897 68.3037 150.897C66.9122 150.897 65.6025 150.624 64.3474 150.106C63.1196 149.587 62.0555 148.878 61.1823 147.95C60.3092 147.077 59.6271 146.013 59.1087 144.758C58.6175 143.503 58.3447 142.193 58.3447 140.801C58.3447 138.919 58.7813 137.2 59.6544 135.645C60.5002 134.089 61.7007 132.834 63.256 131.934C64.7839 131.033 66.5029 130.597 68.3856 130.597C69.7771 130.597 71.0868 130.842 72.3419 131.361C73.5697 131.907 74.6338 132.616 75.5069 133.489C76.38 134.417 77.0895 135.481 77.5806 136.709C78.099 137.964 78.3446 139.273 78.3446 140.692ZM76.1891 140.801C76.1891 138.564 75.3705 136.49 74.0063 134.99C72.642 133.489 70.5956 132.534 68.3037 132.534C66.8303 132.534 65.4934 132.916 64.2928 133.625C63.0923 134.389 62.1646 135.372 61.5098 136.6C60.8549 137.855 60.5275 139.219 60.5275 140.692C60.5275 142.902 61.346 145.003 62.7103 146.477C64.0745 147.977 66.1209 148.932 68.3856 148.932C69.8589 148.932 71.1959 148.55 72.3964 147.814C73.6243 147.104 74.552 146.095 75.2068 144.867C75.8616 143.639 76.1891 142.275 76.1891 140.801ZM97.283 130.788H99.3294V150.679H97.0648L85.1958 133.762V150.679H83.1222V130.788H85.5505L97.283 147.514V130.788ZM119.608 142.902H115.378V150.679H113.277V130.788H119.935C124.792 130.761 126.92 133.68 126.92 136.763C126.92 138.482 126.265 139.983 125.092 141.102C123.891 142.22 121.954 142.902 119.608 142.902ZM119.771 132.752H115.378V140.965H119.662C121.436 140.965 122.827 140.447 123.618 139.628C124.41 138.837 124.792 137.855 124.792 136.818C124.792 134.881 123.673 132.752 119.771 132.752ZM145.886 150.679L143.703 145.604H132.871L130.688 150.679H128.56L137.127 130.788H139.501L148.096 150.679H145.886ZM142.912 143.694L138.273 132.943L133.662 143.694H142.912ZM164.197 130.788H166.298V142.902C166.298 145.413 165.615 147.377 164.333 148.769C163.023 150.16 161.168 150.87 158.794 150.87C156.448 150.87 154.592 150.16 153.31 148.741C152 147.323 151.345 145.44 151.345 143.039V130.788H153.419V142.93C153.419 145.031 154.019 146.64 155.002 147.541C156.011 148.469 157.294 148.905 158.903 148.905C160.595 148.905 161.905 148.414 162.832 147.377C163.733 146.34 164.197 144.921 164.197 143.039V130.788Z" fill="#FFE8E1"/>
</svg>
