<svg width="203" height="203" viewBox="0 0 203 203" fill="none" xmlns="http://www.w3.org/2000/svg">
<g id="Frame">
<g id="SvgjsG19283">
<path id="Vector" d="M101.5 203C157.557 203 203 157.557 203 101.5C203 45.4431 157.557 0 101.5 0C45.4431 0 0 45.4431 0 101.5C0 157.557 45.4431 203 101.5 203Z" fill="#F05742"/>
</g>
<g id="SvgjsG19284">
<g id="pluma">
<path id="Vector_2" d="M121.917 51.968C116.16 52.41 110.58 54.1541 105.605 57.0764C105.428 58.5942 105.384 60.1243 105.479 61.6488C104.824 60.5333 104.326 59.3309 103.998 58.0714C96.271 63.1288 90.6531 70.8369 88.1841 79.7361C85.3501 83.5911 83.0073 87.7786 81.2 92.2064C89.2802 78.8109 100.144 67.3106 113.055 58.487C105.265 65.6922 97.8899 73.3318 90.9742 81.3866C100.043 79.686 108.224 74.8431 114.082 67.7134C111.814 67.5061 109.528 67.5807 107.28 67.934C109.836 66.7623 112.602 66.1078 115.41 65.994C116.224 64.8856 116.979 63.7267 117.672 62.5427C115.877 62.7066 114.095 63.0277 112.355 63.5127C114.239 62.3789 116.299 61.5793 118.453 61.1387C119.983 58.2419 121.148 55.1553 121.917 51.968Z" fill="#FFE8E1"/>
<path id="Vector_3" d="M86.6162 93.0513C89.0786 91.5202 92.0831 91.1235 94.8538 91.9675C98.2734 93.3587 102.096 93.3908 105.529 92.043C105.774 91.9424 105.894 91.6647 105.799 91.4324C105.705 91.1863 105.428 91.0603 105.182 91.1613C101.964 92.4208 98.374 92.3953 95.1744 91.0725C92.1265 90.1346 88.8264 90.5691 86.118 92.2503C85.8913 92.383 85.8285 92.673 85.9669 92.9054C86.1001 93.1264 86.3957 93.1948 86.6162 93.0513Z" fill="#FFE8E1"/>
</g>
</g>
<g id="SvgjsG19285">
<path id="Vector_4" d="M50.2076 117.017C50.2076 118.319 49.9057 119.507 49.3208 120.583C48.7171 121.658 47.8869 122.507 46.8303 123.13C45.7549 123.752 44.5851 124.073 43.2643 124.073C42.3021 124.073 41.3965 123.884 40.5285 123.526C39.6795 123.167 38.9437 122.677 38.3399 122.035C37.7361 121.432 37.2645 120.696 36.906 119.828C36.5664 118.96 36.3777 118.054 36.3777 117.092C36.3777 115.79 36.6796 114.602 37.2833 113.526C37.8682 112.451 38.6984 111.583 39.7738 110.96C40.8304 110.338 42.0191 110.036 43.3209 110.036C44.2832 110.036 45.1888 110.205 46.0567 110.564C46.9058 110.941 47.6416 111.432 48.2454 112.036C48.8491 112.677 49.3397 113.413 49.6793 114.262C50.0378 115.13 50.2076 116.036 50.2076 117.017ZM48.7171 117.092C48.7171 115.545 48.151 114.111 47.2077 113.073C46.2643 112.036 44.8492 111.375 43.2643 111.375C42.2455 111.375 41.321 111.639 40.4908 112.13C39.6606 112.658 39.0191 113.337 38.5663 114.187C38.1135 115.054 37.8871 115.998 37.8871 117.017C37.8871 118.545 38.4531 119.998 39.3965 121.017C40.3399 122.054 41.7549 122.715 43.3209 122.715C44.3398 122.715 45.2643 122.45 46.0945 121.941C46.9435 121.451 47.585 120.752 48.0378 119.903C48.4906 119.054 48.7171 118.111 48.7171 117.092V117.092ZM63.5866 123.922H61.8319L57.7565 118.356H54.9641V123.922H53.5113V110.168H58.2848C59.9074 110.168 61.2093 110.621 61.964 111.375C62.7187 112.13 63.1149 113.073 63.1149 114.187C63.1149 116.507 61.3791 117.847 59.3414 118.111L63.5866 123.922ZM54.9641 111.526V117.036H58.1527C59.3602 117.036 60.3036 116.696 60.8508 116.149C61.3791 115.62 61.6432 114.96 61.6432 114.224C61.6432 112.866 60.813 111.526 58.1904 111.526H54.9641ZM71.1166 111.526V123.922H69.6827V111.526H65.079V110.168H75.7203V111.526H71.1166V111.526ZM91.3256 117.017C91.3256 118.319 91.0237 119.507 90.4388 120.583C89.8351 121.658 89.0049 122.507 87.9483 123.13C86.8729 123.752 85.7031 124.073 84.3824 124.073C83.4201 124.073 82.5145 123.884 81.6466 123.526C80.7975 123.167 80.0617 122.677 79.4579 122.035C78.8542 121.432 78.3825 120.696 78.024 119.828C77.6844 118.96 77.4957 118.054 77.4957 117.092C77.4957 115.79 77.7976 114.602 78.4014 113.526C78.9862 112.451 79.8164 111.583 80.8919 110.96C81.9485 110.338 83.1371 110.036 84.439 110.036C85.4012 110.036 86.3069 110.205 87.1748 110.564C88.0238 110.941 88.7596 111.432 89.3634 112.036C89.9672 112.677 90.4577 113.413 90.7973 114.262C91.1558 115.13 91.3256 116.036 91.3256 117.017ZM89.8351 117.092C89.8351 115.545 89.2691 114.111 88.3257 113.073C87.3823 112.036 85.9672 111.375 84.3824 111.375C83.3635 111.375 82.439 111.639 81.6088 112.13C80.7787 112.658 80.1372 113.337 79.6843 114.187C79.2315 115.054 79.0051 115.998 79.0051 117.017C79.0051 118.545 79.5711 119.998 80.5145 121.017C81.4579 122.054 82.873 122.715 84.439 122.715C85.4578 122.715 86.3823 122.45 87.2125 121.941C88.0615 121.451 88.703 120.752 89.1558 119.903C89.6087 119.054 89.8351 118.111 89.8351 117.092V117.092ZM106.667 114.111L105.289 114.602C105.12 114.111 104.893 113.602 104.346 112.979C104.082 112.696 103.78 112.413 103.44 112.187C102.761 111.715 101.705 111.375 100.554 111.375C99.516 111.375 98.5915 111.621 97.7613 112.149C96.9312 112.677 96.2897 113.356 95.8368 114.224C95.384 115.073 95.1576 115.998 95.1576 117.017C95.1576 118.564 95.6859 119.998 96.5915 121.035C97.5161 122.073 98.95 122.715 100.573 122.715C101.799 122.715 102.969 122.318 103.856 121.639C104.742 120.96 105.346 119.866 105.422 118.602H99.6858V117.262H106.969V117.79C106.969 119.526 106.346 121.092 105.271 122.224C104.176 123.356 102.497 124.054 100.554 124.054C98.4972 124.054 96.7048 123.3 95.535 122.054C94.3652 120.809 93.6671 119.035 93.6671 117.092C93.6671 115.79 93.969 114.583 94.5727 113.507C95.1765 112.432 96.0067 111.583 97.0632 110.96C98.1198 110.338 99.3085 110.036 100.591 110.036C102.214 110.036 103.648 110.488 104.629 111.281C105.629 112.054 106.289 112.998 106.667 114.111V114.111ZM120.216 123.922H118.461L114.386 118.356H111.593V123.922H110.14V110.168H114.914C116.536 110.168 117.838 110.621 118.593 111.375C119.348 112.13 119.744 113.073 119.744 114.187C119.744 116.507 118.008 117.847 115.97 118.111L120.216 123.922ZM111.593 111.526V117.036H114.782C115.989 117.036 116.933 116.696 117.48 116.149C118.008 115.62 118.272 114.96 118.272 114.224C118.272 112.866 117.442 111.526 114.819 111.526H111.593ZM133.368 123.922L131.859 120.413H124.368L122.859 123.922H121.387L127.312 110.168H128.953L134.896 123.922H133.368ZM131.312 119.092L128.104 111.658L124.915 119.092H131.312ZM138.766 111.526V116.469H145.238V117.79H138.766V123.922H137.313V110.168H145.841V111.526H138.766ZM150.881 105.885H152.541L150.296 108.904H148.975L150.881 105.885ZM148.919 123.922V110.168H150.372V123.922H148.919ZM164.769 123.922L163.26 120.413H155.77L154.26 123.922H152.789L158.713 110.168H160.354L166.298 123.922H164.769V123.922ZM162.713 119.092L159.505 111.658L156.317 119.092H162.713Z" fill="#FFE8E1"/>
</g>
<g id="SvgjsG19286">
<path id="Vector_5" d="M46.3094 150.897C43.5809 150.897 41.0434 149.833 39.2699 148.087C38.3968 147.213 37.6874 146.149 37.1689 144.894C36.6505 143.612 36.3777 142.248 36.3777 140.801C36.3777 139.328 36.6505 137.937 37.1962 136.654C37.7419 135.372 38.4513 134.28 39.3517 133.407C41.1798 131.634 43.7173 130.57 46.3913 130.57C48.4922 130.57 50.4021 131.197 51.6845 132.098C52.3394 132.534 52.9124 133.053 53.4308 133.625C54.4403 134.799 54.986 135.972 55.2861 137.118L53.2943 137.827C53.1306 137.173 52.8578 136.463 52.1211 135.426C51.7391 134.908 51.3298 134.444 50.8387 134.035C50.3476 133.625 49.72 133.271 48.9288 132.998C48.1375 132.698 47.2917 132.561 46.3367 132.561C44.263 132.561 42.2712 133.407 40.8797 134.799C39.4609 136.218 38.5605 138.319 38.5605 140.665C38.5605 142.22 38.8879 143.639 39.57 144.894C40.2249 146.149 41.1526 147.132 42.3804 147.841C43.5536 148.55 44.8906 148.905 46.364 148.905C48.1921 148.905 49.7746 148.278 50.7296 147.514C51.2207 147.132 51.6573 146.695 52.0392 146.149C52.4212 145.631 52.6941 145.167 52.8851 144.785C53.0488 144.403 53.2125 143.994 53.3489 143.585L55.3407 144.294C55.0406 145.358 54.5222 146.449 53.5126 147.677C53.0215 148.278 52.4212 148.823 51.7937 149.287C50.484 150.215 48.4922 150.897 46.3094 150.897ZM78.3447 140.692C78.3447 142.575 77.9081 144.294 77.0623 145.849C76.1891 147.404 74.9886 148.632 73.4606 149.533C71.9054 150.433 70.2137 150.897 68.3038 150.897C66.9123 150.897 65.6026 150.624 64.3475 150.106C63.1197 149.587 62.0555 148.878 61.1824 147.95C60.3093 147.077 59.6272 146.013 59.1088 144.758C58.6176 143.503 58.3448 142.193 58.3448 140.801C58.3448 138.919 58.7814 137.2 59.6545 135.645C60.5003 134.089 61.7008 132.834 63.2561 131.934C64.784 131.033 66.503 130.597 68.3857 130.597C69.7772 130.597 71.0869 130.842 72.342 131.361C73.5698 131.907 74.6339 132.616 75.507 133.489C76.3801 134.417 77.0895 135.481 77.5807 136.709C78.0991 137.964 78.3447 139.273 78.3447 140.692ZM76.1891 140.801C76.1891 138.564 75.3706 136.49 74.0063 134.99C72.6421 133.489 70.5957 132.534 68.3038 132.534C66.8304 132.534 65.4934 132.916 64.2929 133.625C63.0924 134.389 62.1647 135.372 61.5098 136.6C60.855 137.855 60.5276 139.219 60.5276 140.692C60.5276 142.902 61.3461 145.003 62.7104 146.477C64.0746 147.977 66.121 148.932 68.3857 148.932C69.859 148.932 71.196 148.55 72.3965 147.814C73.6244 147.104 74.552 146.095 75.2069 144.867C75.8617 143.639 76.1891 142.275 76.1891 140.801V140.801ZM97.2831 130.788H99.3295V150.679H97.0649L85.1959 133.762V150.679H83.1222V130.788H85.5506L97.2831 147.514V130.788V130.788ZM119.608 142.902H115.379V150.679H113.278V130.788H119.935C124.792 130.761 126.92 133.68 126.92 136.763C126.92 138.482 126.265 139.983 125.092 141.102C123.891 142.22 121.954 142.902 119.608 142.902ZM119.771 132.752H115.379V140.965H119.662C121.436 140.965 122.827 140.447 123.619 139.628C124.41 138.837 124.792 137.855 124.792 136.818C124.792 134.881 123.673 132.752 119.771 132.752V132.752ZM145.886 150.679L143.703 145.604H132.871L130.688 150.679H128.56L137.127 130.788H139.501L148.096 150.679H145.886ZM142.912 143.694L138.273 132.943L133.662 143.694H142.912ZM164.197 130.788H166.298V142.902C166.298 145.413 165.616 147.377 164.333 148.769C163.023 150.16 161.168 150.87 158.794 150.87C156.448 150.87 154.592 150.16 153.31 148.741C152 147.323 151.346 145.44 151.346 143.039V130.788H153.419V142.93C153.419 145.031 154.019 146.64 155.002 147.541C156.011 148.469 157.294 148.905 158.903 148.905C160.595 148.905 161.905 148.414 162.832 147.377C163.733 146.34 164.197 144.921 164.197 143.039V130.788V130.788Z" fill="#FFE8E1"/>
</g>
</g>
</svg>
