<svg width="400" height="350" viewBox="0 0 400 350" fill="none" xmlns="http://www.w3.org/2000/svg">
<path d="M376.627 76.7497C365.117 64.7745 349.603 56.0654 339.093 43.5459C334.589 38.1027 332.087 25.0389 324.08 24.4946C312.569 22.8616 301.559 45.1789 294.553 56.6097C293.552 53.3438 291.05 50.6221 287.046 51.1665C235.5 59.3313 182.952 56.6097 130.905 58.2427C123.399 58.2427 123.399 70.7621 130.905 70.7621C182.952 71.8507 236 71.8508 287.547 64.2302C271.532 83.2816 254.517 101.244 238.002 119.751C232.497 118.663 226.492 119.207 220.987 119.207C213.98 119.207 206.474 119.207 199.467 119.751C192.461 120.84 192.461 130.638 199.467 131.182C206.474 132.271 213.98 131.726 220.987 131.726C222.488 131.726 224.49 131.726 225.991 131.726C218.484 139.891 211.478 148.6 203.971 157.31C199.968 162.208 194.963 167.107 190.459 172.006C189.458 168.196 185.455 164.93 181.451 167.652C180.951 168.196 180.45 168.196 179.95 168.74C177.948 170.373 176.947 173.095 178.448 175.817C169.941 158.943 125.4 171.462 108.885 172.551C74.3543 175.272 39.8232 174.184 5.292 176.905C-1.21387 177.45 -1.21387 187.247 5.292 187.792C40.3236 190.513 76.3561 188.88 111.388 186.703C128.904 185.614 146.419 182.893 164.436 182.348C169.941 182.348 174.945 182.893 179.95 182.348C165.437 196.501 150.423 211.198 141.915 229.16C132.407 249.845 128.904 275.428 122.398 297.201C117.393 312.986 107.885 326.594 106.884 342.924C106.884 346.19 109.886 350 113.39 350C129.904 347.823 145.418 338.569 161.433 333.67C182.952 327.138 203.971 320.607 225.491 314.619C227.993 314.075 229.494 311.353 229.494 308.631C229.494 308.087 229.494 307.543 229.494 306.999C229.494 306.454 229.494 305.91 229.494 305.366C256.519 276.516 288.047 256.376 312.069 223.717C325.581 205.754 338.593 187.247 353.106 169.829C365.617 154.588 383.633 140.98 394.643 125.194C409.156 105.599 391.14 91.4464 376.627 76.7497ZM130.405 330.949C120.396 328.771 126.401 327.683 130.905 315.163C130.905 314.619 130.905 314.619 131.406 314.075C132.907 315.708 134.909 317.341 136.41 318.974C138.412 321.151 140.414 323.328 141.415 326.05C141.915 326.594 141.915 327.683 142.416 328.227C135.91 330.404 131.406 331.493 130.405 330.949ZM155.928 324.417C155.428 323.328 154.427 322.24 152.925 321.695C152.425 320.607 151.924 318.974 151.424 317.885C149.923 314.619 147.921 312.986 145.418 310.809C143.417 309.176 141.415 307.543 139.413 305.91C138.412 305.366 136.41 304.277 134.909 303.188C139.913 287.947 143.417 272.162 147.42 257.465C148.922 252.022 150.923 246.579 153.426 241.135C155.428 243.313 157.93 245.49 160.432 247.667C167.438 253.655 170.942 261.82 176.947 268.896C183.453 277.061 187.456 286.859 193.962 294.479C198.466 299.922 204.472 303.733 210.477 307.543C198.466 311.353 174.445 318.974 155.928 324.417ZM300.558 219.362C277.538 250.389 246.009 269.984 221.487 298.834C212.979 293.39 205.473 288.492 199.467 279.238C195.464 272.706 192.461 267.263 187.456 261.275C182.452 255.832 179.449 248.756 174.945 243.313C170.941 238.414 163.935 236.236 160.432 230.793L159.932 230.249C175.946 204.666 200.969 183.981 219.485 161.664C230.495 148.6 242.006 135.537 253.016 123.017C264.026 135.537 276.537 146.423 288.548 157.854C299.558 168.196 310.067 179.627 322.578 188.336C323.079 188.336 323.079 188.336 323.579 188.88C316.072 198.678 308.065 209.02 300.558 219.362ZM334.589 174.184C333.088 175.817 332.087 177.45 331.086 179.082C331.086 178.538 330.586 178.538 330.586 177.994L330.085 177.45C329.585 176.905 329.585 176.905 329.084 176.361C306.564 156.221 285.044 131.726 261.023 114.308C270.031 104.51 278.539 94.7123 287.547 84.9145C295.554 99.0669 304.562 112.675 316.072 123.561C327.583 134.448 340.595 143.701 352.605 154.044C345.599 160.575 339.594 167.107 334.589 174.184ZM377.628 124.65C372.624 131.726 366.618 138.803 360.613 145.334C348.602 134.992 335.59 125.739 324.08 114.852C313.57 104.51 306.564 89.8134 296.054 80.0156C296.054 80.0156 296.054 80.0156 296.054 79.4713C295.554 78.927 294.553 78.3826 294.053 77.8383C296.054 75.1167 298.557 72.9394 300.558 70.2178C306.063 63.6859 310.568 57.6983 315.572 50.0778C326.082 33.7481 320.577 41.3686 330.586 53.8881C346.6 72.9394 397.646 95.2567 377.628 124.65Z" fill="#F05742"/>
<path d="M16.8016 14.6967C55.8368 17.4183 94.8721 19.0513 134.408 17.9627C166.937 17.4183 198.966 23.9502 230.995 22.8616C239.002 22.3172 239.002 9.25348 230.995 9.25348C230.494 9.25348 229.994 9.25348 229.494 9.25348C197.965 10.3421 166.437 3.81025 134.408 4.35457C95.3725 5.44322 55.3364 -2.3365e-05 16.8016 3.26592C9.79529 3.81024 9.79529 14.6967 16.8016 14.6967Z" fill="#F05742"/>
<path d="M261.023 15.2411C281.542 16.3297 301.56 13.6081 322.078 13.6081C330.086 13.6081 330.086 0 322.078 0C301.56 0 281.542 1.63297 261.023 3.26594C254.017 3.81027 254.017 14.6967 261.023 15.2411Z" fill="#F05742"/>
<path d="M11.2975 72.395C24.8097 74.5723 38.8224 71.8507 52.3346 72.395C69.3499 72.9393 86.8657 72.9393 103.881 72.9393C104.382 72.9393 104.382 72.9393 104.882 72.9393H105.382C108.385 72.395 109.887 69.129 109.887 66.4074C109.887 63.6858 108.886 60.4199 105.382 59.8755C104.882 59.8755 104.882 59.8755 104.382 59.8755H103.881C72.3526 59.3312 41.8251 58.7869 10.7971 64.7745C7.79438 65.3188 7.79438 71.8507 11.2975 72.395Z" fill="#F05742"/>
<path d="M77.3571 132.815C106.884 132.815 136.911 133.904 166.437 130.638C174.445 129.549 174.445 116.485 166.437 117.029C112.889 122.473 55.8376 110.498 3.29022 125.739C-1.71429 127.372 -0.713391 134.992 4.29113 134.992C28.3128 135.536 52.8349 132.815 77.3571 132.815Z" fill="#F05742"/>
<path d="M102.88 229.16C88.3671 231.338 74.8549 234.059 59.8414 234.059C43.8269 234.059 28.313 233.515 12.2985 235.692C6.29308 236.781 6.29308 244.946 12.2985 246.034C42.826 250.389 74.3545 248.212 104.382 242.768C111.388 241.135 109.887 228.072 102.88 229.16Z" fill="#F05742"/>
</svg>
