<svg width="90" height="88" viewBox="0 0 90 88" fill="none" xmlns="http://www.w3.org/2000/svg">
<path d="M90 0C77.2753 0.95583 64.941 4.72707 53.9438 11.0462C53.5545 14.3283 53.4564 17.6369 53.6662 20.9333C52.2183 18.5212 51.1181 15.9213 50.3937 13.1978C33.3129 24.1337 20.8951 40.8015 15.4377 60.0447C9.17349 68.3806 3.99487 77.4355 0 87.0101C17.8605 58.0442 41.8747 33.1763 70.4119 14.0964C53.1923 29.6767 36.8913 46.1964 21.6049 63.6137C41.6513 59.9364 59.7342 49.4642 72.6812 34.0473C67.6696 33.599 62.6163 33.7604 57.6464 34.5242C63.2979 31.9907 69.4108 30.5753 75.6187 30.3292C77.4162 27.9325 79.0853 25.4265 80.6167 22.8664C76.65 23.2207 72.7105 23.9151 68.8659 24.9639C73.0299 22.512 77.5822 20.7832 82.3432 19.8304C85.7254 13.5664 88.3016 6.89198 90 0Z" fill="#F05742"/>
</svg>
